<?xml version="1.0" encoding="UTF-8" standalone="no"?>
<svg xmlns="http://www.w3.org/2000/svg" viewBox="7.50 -106.15 546.60 546.60" role="img" aria-label="Upward Physio">
<title>Upward Physio</title>
<g stroke-width="2.00" fill="none" stroke-linecap="butt">
<path stroke="#143646" vector-effect="non-scaling-stroke" d="
  M 407.90 82.96
  Q 410.86 86.29 415.34 87.91
  A 0.52 0.51 4.3 0 0 416.02 87.33
  Q 414.57 80.02 412.04 74.58
  C 410.39 71.03 407.05 67.48 404.59 64.24
  A 14.81 14.60 18.0 0 1 402.25 59.72
  Q 400.12 52.94 398.90 49.35
  C 398.21 47.28 397.53 46.01 398.26 43.75
  Q 398.55 42.85 401.10 37.83
  A 2.15 2.12 -43.9 0 0 401.15 35.98
  L 399.19 31.59
  A 1.41 1.41 0.0 0 0 398.07 30.75
  L 394.13 30.22
  A 0.04 0.04 0.0 0 1 394.09 30.19
  L 394.07 29.93
  A 0.24 0.23 -8.0 0 1 394.27 29.68
  Q 399.64 28.82 400.82 33.46
  A 0.69 0.69 0.0 0 0 401.94 33.81
  L 411.87 25.29
  A 2.09 2.09 0.0 0 0 412.14 22.41
  L 408.82 18.21
  A 2.06 2.06 0.0 0 0 405.86 17.92
  L 396.01 26.38
  A 1.06 1.06 0.0 0 1 394.53 26.29
  Q 392.54 24.07 391.18 25.36
  C 390.58 25.94 390.68 26.66 390.53 27.34
  A 0.64 0.64 0.0 0 1 389.55 27.73
  L 388.93 27.32
  A 1.56 1.56 0.0 0 0 386.65 29.25
  L 387.05 30.14
  A 0.35 0.34 4.1 0 1 386.55 30.57
  Q 385.11 29.67 384.09 30.66
  A 1.16 1.15 68.6 0 0 383.73 31.50
  L 383.74 32.97
  A 0.50 0.50 0.0 0 1 383.24 33.47
  Q 381.78 33.46 381.43 34.52
  Q 381.28 35.00 381.45 35.39
  Q 381.52 35.54 381.75 36.18
  A 0.61 0.60 -31.3 0 1 381.58 36.85
  L 357.06 57.91
  A 1.19 1.19 0.0 0 1 355.36 57.75
  Q 346.95 47.22 339.50 38.77
  Q 338.33 37.44 336.78 37.17
  A 1.54 1.52 36.0 0 0 335.85 37.31
  Q 332.43 39.05 330.91 42.83
  A 2.24 1.84 -74.6 0 1 328.89 44.26
  C 326.93 44.05 323.59 47.62 321.95 49.33
  A 2.64 2.63 -35.3 0 0 321.45 52.22
  Q 322.30 54.15 324.33 56.67
  Q 330.23 63.99 336.11 70.94
  A 0.75 0.74 49.4 0 1 336.03 71.98
  L 333.23 74.38
  A 0.91 0.90 -39.6 0 0 333.11 75.63
  L 334.97 77.99
  A 0.55 0.55 0.0 0 1 334.90 78.74
  L 221.06 176.55
  A 0.99 0.99 0.0 0 1 219.83 176.59
  C 216.76 174.28 215.28 175.52 212.66 177.78
  Q 210.37 179.75 209.92 182.83
  A 2.83 2.82 73.8 0 1 208.97 184.57
  L 194.96 196.61
  A 0.96 0.94 -61.2 0 1 194.23 196.83
  L 190.45 196.41
  A 0.40 0.40 0.0 0 1 190.18 195.77
  Q 191.85 193.62 190.29 192.24
  Q 189.24 191.30 188.17 190.44
  A 1.23 1.23 0.0 0 0 186.61 190.44
  Q 176.43 198.84 165.58 208.93
  C 163.61 210.76 165.86 212.92 167.74 213.61
  A 1.18 1.18 0.0 0 0 168.88 213.43
  L 171.20 211.60
  A 1.27 1.26 49.8 0 1 172.93 211.75
  L 173.14 211.99
  A 1.28 1.27 48.3 0 1 173.04 213.80
  L 143.73 239.92
  A 0.93 0.91 36.1 0 1 142.72 240.07
  Q 141.65 239.58 140.91 238.03
  A 1.06 1.06 0.0 0 0 139.17 237.78
  Q 138.24 238.82 135.32 240.62
  A 5.44 5.32 -81.6 0 0 134.36 241.35
  L 131.17 244.32
  A 0.87 0.86 46.1 0 0 131.15 245.57
  L 145.82 260.24
  A 0.99 0.99 0.0 0 1 145.73 261.72
  L 144.72 262.53
  A 1.23 1.23 0.0 0 1 143.09 262.43
  Q 138.64 257.93 133.66 252.89
  Q 131.81 251.01 130.43 251.02
  Q 127.11 251.07 123.97 250.88
  A 1.10 1.10 0.0 0 1 123.03 249.35
  Q 123.24 248.88 124.22 247.97
  Q 131.26 241.38 134.91 237.33
  A 1.75 1.49 -46.5 0 0 135.03 235.11
  Q 134.61 234.68 133.27 234.48
  C 129.28 233.90 128.11 236.20 127.18 239.43
  A 4.36 4.31 75.8 0 1 126.08 241.30
  L 118.46 248.92
  A 1.26 1.25 45.2 0 0 118.46 250.69
  L 124.83 257.06
  A 0.49 0.49 0.0 0 1 124.79 257.79
  L 121.68 260.25
  A 1.15 1.14 -38.4 0 0 121.49 261.85
  L 121.93 262.41
  A 0.67 0.66 -38.7 0 1 121.82 263.35
  L 117.75 266.56
  A 1.57 1.55 -58.7 0 1 116.52 266.87
  Q 111.57 265.95 108.89 270.73
  C 107.76 272.74 107.85 275.14 108.11 277.48
  A 0.63 0.63 0.0 0 1 106.92 277.82
  Q 106.00 275.87 106.33 273.54
  Q 107.44 265.65 114.29 265.14
  Q 116.97 264.94 117.96 264.17
  Q 119.88 262.67 119.20 260.71
  Q 119.12 260.48 119.50 260.01
  Q 119.86 259.57 119.91 259.32
  A 0.37 0.37 0.0 0 0 119.55 258.88
  Q 82.91 258.77 76.25 258.95
  Q 74.59 258.99 72.84 260.83
  C 54.39 280.13 33.32 300.35 17.04 316.44
  A 0.65 0.65 0.0 0 0 17.50 317.55
  L 156.10 316.86
  A 1.23 1.23 0.0 0 0 157.10 316.32
  L 195.00 259.01
  A 0.35 0.35 0.0 0 0 194.71 258.47
  L 162.83 258.63
  A 0.56 0.56 0.0 0 0 162.29 259.32
  C 163.84 265.64 157.51 269.56 152.31 265.70
  A 0.97 0.97 0.0 0 0 151.02 265.82
  Q 147.47 269.69 143.77 272.52
  C 139.95 275.44 136.57 270.36 133.84 267.69
  A 0.50 0.50 0.0 0 0 132.99 268.02
  C 132.84 270.86 130.89 271.27 128.50 272.12
  A 2.99 2.47 -64.5 0 0 128.07 272.32
  Q 124.49 274.60 123.68 278.17
  A 0.31 0.30 9.6 0 1 123.35 278.40
  L 123.08 278.37
  A 0.61 0.61 0.0 0 1 122.54 277.70
  Q 122.96 273.73 126.69 271.15
  C 127.84 270.35 130.21 269.84 130.71 269.04
  Q 131.04 268.50 130.56 267.87
  A 0.82 0.82 0.0 0 1 130.63 266.78
  L 132.45 264.95
  A 0.86 0.86 0.0 0 1 133.65 264.94
  Q 136.28 267.47 139.30 270.56
  Q 141.37 272.68 143.56 270.56
  Q 148.74 265.55 151.14 263.46
  A 0.74 0.73 44.0 0 1 152.08 263.45
  C 153.62 264.70 155.55 266.20 157.46 265.59
  Q 160.88 264.51 160.67 261.34
  Q 160.38 256.86 155.97 256.60
  A 0.79 0.77 72.2 0 1 155.40 256.30
  L 152.76 252.96
  A 0.80 0.79 -39.9 0 1 152.86 251.87
  L 200.56 209.34
  A 0.65 0.65 0.0 0 0 200.63 208.43
  Q 200.41 208.17 200.31 207.96
  A 1.09 1.09 0.0 0 1 200.57 206.68
  L 217.30 191.76
  A 1.51 1.49 -64.2 0 1 218.37 191.38
  C 222.94 191.62 228.19 187.59 225.75 182.59
  A 1.29 1.28 -33.5 0 1 226.07 181.05
  L 338.78 84.20
  A 0.86 0.85 47.1 0 1 339.93 84.25
  L 341.38 85.70
  A 1.32 1.32 0.0 0 0 343.17 85.77
  L 345.41 83.84
  A 0.69 0.68 -40.0 0 1 346.38 83.92
  Q 352.55 91.26 359.79 99.46
  Q 361.34 101.23 363.25 102.32
  A 2.65 2.64 37.4 0 0 366.44 101.90
  L 373.17 95.17
  A 0.76 0.70 -77.0 0 1 373.45 94.98
  C 375.39 94.17 378.25 92.38 379.29 90.44
  A 3.15 3.14 -50.0 0 0 378.99 87.00
  L 363.15 66.95
  A 0.61 0.61 0.0 0 1 363.24 66.11
  L 385.27 47.18
  A 1.31 1.31 0.0 0 1 387.28 47.56
  Q 391.21 54.91 392.06 63.53
  C 392.77 70.67 392.88 76.19 395.58 82.26
  Q 398.92 89.74 402.74 94.00
  C 405.25 96.80 406.11 100.60 408.61 103.35
  C 410.98 105.96 411.78 108.50 413.76 111.99
  C 416.69 117.15 421.72 120.10 428.49 125.01
  A 0.51 0.51 0.0 0 0 429.30 124.66
  L 429.58 122.13
  A 1.47 1.45 26.3 0 0 429.17 120.94
  Q 427.77 119.51 428.51 117.33
  A 1.49 1.45 44.2 0 0 428.48 116.27
  Q 428.37 115.99 428.00 115.60
  Q 427.63 115.20 427.77 114.34
  Q 427.93 113.38 427.24 112.40
  Q 426.99 112.05 427.17 111.56
  Q 427.36 111.03 427.31 110.65
  Q 427.24 110.09 426.35 109.74
  Q 425.35 109.34 424.89 109.04
  A 2.16 2.15 31.5 0 1 424.20 106.18
  L 427.25 100.79
  A 1.08 1.07 45.8 0 0 427.26 99.74
  Q 424.02 93.88 419.14 90.33
  A 8.07 8.01 -17.1 0 0 417.08 89.25
  C 413.42 87.96 409.10 86.52 407.51 83.22
  A 0.24 0.24 0.0 0 1 407.90 82.96"
/>
<path stroke="#143646" vector-effect="non-scaling-stroke" d="
  M 454.39 156.91
  Q 456.83 160.05 458.42 161.19
  Q 461.89 163.69 463.98 166.01
  A 0.13 0.13 0.0 0 1 463.82 166.21
  L 459.15 163.11
  A 0.41 0.40 10.8 0 0 458.53 163.53
  Q 458.80 164.78 458.79 165.00
  C 458.27 176.56 457.35 184.73 462.16 194.37
  A 0.45 0.45 0.0 0 0 462.96 194.36
  L 465.00 190.03
  A 0.35 0.35 0.0 0 1 465.23 189.84
  L 465.24 189.85
  A 0.22 0.21 12.7 0 1 465.40 190.10
  Q 464.53 194.19 462.50 196.59
  Q 457.93 201.99 455.83 205.61
  C 453.68 209.31 452.66 213.10 450.90 217.92
  Q 449.66 221.29 446.84 225.10
  Q 443.60 229.46 438.08 236.37
  A 6.51 6.45 -79.2 0 1 435.02 238.47
  Q 431.59 239.56 429.47 240.70
  C 426.01 242.57 423.52 246.86 420.89 251.55
  A 0.81 0.81 0.0 0 0 421.68 252.75
  L 422.01 252.70
  A 3.65 3.63 13.0 0 0 424.54 251.13
  L 427.78 246.31
  A 0.41 0.38 12.5 0 1 428.07 246.14
  L 428.12 246.13
  A 0.28 0.27 19.2 0 1 428.31 246.51
  Q 425.70 252.18 421.62 257.05
  A 1.58 1.56 39.0 0 0 421.87 259.31
  L 421.93 259.36
  A 1.73 1.72 -50.0 0 0 424.38 259.14
  L 428.80 253.82
  A 0.01 0.00 -31.7 0 1 428.81 253.82
  L 429.07 253.99
  A 0.51 0.50 37.1 0 1 429.18 254.74
  L 425.50 259.10
  A 1.50 1.49 36.7 0 0 425.83 261.32
  L 425.87 261.34
  A 2.19 2.19 0.0 0 0 428.66 260.90
  Q 432.30 256.74 432.75 256.26
  A 0.15 0.10 -55.3 0 1 432.83 256.23
  Q 433.22 256.24 433.20 256.46
  A 1.17 1.16 -22.5 0 1 432.92 257.13
  L 429.88 260.67
  A 0.92 0.92 0.0 0 0 430.35 262.16
  L 430.84 262.29
  A 2.20 2.19 27.1 0 0 433.08 261.57
  L 436.91 256.95
  A 0.27 0.27 0.0 0 1 437.35 257.25
  Q 436.21 259.20 434.85 260.17
  A 0.58 0.58 0.0 0 0 435.04 261.21
  L 435.58 261.35
  A 2.05 2.05 0.0 0 0 437.77 260.56
  L 443.24 252.97
  A 3.56 3.53 -19.4 0 0 443.77 251.88
  L 445.92 244.53
  A 5.85 5.63 71.3 0 1 446.71 242.85
  Q 451.69 235.62 453.65 233.64
  C 462.22 224.94 467.76 219.35 472.66 209.69
  C 474.04 206.96 477.94 202.95 477.70 200.23
  C 477.04 192.88 478.51 185.62 480.35 178.88
  C 482.04 172.69 479.82 165.68 479.42 160.68
  A 1.01 0.91 53.4 0 1 479.45 160.37
  Q 483.89 146.06 474.23 138.00
  A 2.55 2.53 11.7 0 1 473.42 136.78
  Q 471.64 131.04 468.37 128.37
  Q 462.29 123.40 461.80 122.98
  A 4.64 4.54 5.1 0 1 460.76 121.76
  Q 458.08 117.16 458.95 112.00
  C 459.50 108.80 462.30 104.60 463.34 101.62
  Q 466.51 92.55 461.94 85.56
  C 455.55 75.77 444.63 77.64 434.51 79.78
  Q 431.27 80.46 428.22 84.45
  A 0.93 0.93 0.0 0 0 428.11 85.40
  Q 428.46 86.20 428.27 87.09
  A 0.68 0.68 0.0 0 0 428.94 87.91
  L 429.76 87.90
  A 0.55 0.55 0.0 0 1 430.27 88.66
  Q 428.91 91.92 427.81 95.08
  Q 426.92 97.65 428.35 99.05
  A 1.57 1.56 -51.3 0 1 428.56 101.04
  L 424.92 106.54
  A 0.92 0.88 49.9 0 0 424.86 107.41
  Q 425.35 108.49 427.40 109.04
  A 1.09 1.07 -3.1 0 1 428.13 109.68
  C 428.37 110.29 427.94 111.14 428.03 111.96
  Q 428.08 112.44 428.55 112.78
  Q 429.05 113.13 428.85 114.02
  C 428.51 115.59 430.38 115.86 429.48 117.78
  C 428.62 119.62 430.19 121.21 431.99 121.36
  Q 434.52 121.56 437.15 120.79
  A 1.93 1.92 -18.8 0 1 439.48 121.93
  C 440.61 124.75 442.28 128.41 441.24 131.03
  A 0.19 0.19 0.0 0 1 440.88 130.97
  Q 440.57 126.50 438.40 122.25
  A 1.19 1.17 -25.8 0 0 436.85 121.72
  Q 434.49 122.81 430.86 122.23
  A 0.36 0.35 6.8 0 0 430.45 122.55
  Q 429.52 133.26 426.63 144.87
  Q 424.55 153.24 427.62 160.32
  A 2.79 2.75 -51.3 0 1 427.79 161.96
  C 427.14 165.19 426.58 167.96 427.95 171.58
  A 4.18 4.10 -51.4 0 1 428.17 173.73
  Q 427.42 178.39 430.21 182.74
  A 3.05 2.99 -59.1 0 1 430.68 184.70
  Q 430.15 189.97 432.71 194.39
  A 1.59 1.55 34.7 0 1 432.91 195.41
  Q 432.09 201.26 434.86 207.66
  A 0.39 0.39 0.0 0 1 434.46 208.20
  Q 414.09 206.15 394.90 212.96
  C 391.33 214.22 387.27 214.73 384.19 215.42
  C 375.33 217.42 374.93 228.59 377.70 235.42
  Q 378.71 237.92 380.59 241.92
  C 382.85 246.71 384.86 253.77 386.83 257.42
  Q 392.56 268.01 395.94 276.57
  C 397.76 281.18 398.74 284.68 395.44 288.37
  A 1.38 1.36 -68.9 0 1 394.42 288.83
  L 392.32 288.84
  A 0.45 0.45 0.0 0 0 391.92 289.47
  L 392.32 290.38
  A 0.77 0.76 53.8 0 1 392.20 291.18
  Q 387.96 296.06 380.02 297.79
  Q 372.84 299.36 370.71 299.48
  C 366.47 299.71 366.93 303.65 368.51 306.29
  C 373.50 314.60 384.18 316.53 393.08 314.26
  Q 401.85 312.01 410.24 312.01
  C 414.34 312.00 421.83 310.33 418.80 304.50
  A 3.65 3.64 32.1 0 1 418.40 302.76
  C 418.47 300.32 419.46 290.31 414.68 290.83
  A 1.16 1.16 0.0 0 1 413.47 290.06
  Q 411.07 283.23 409.33 274.20
  Q 407.57 265.13 407.78 260.98
  Q 408.10 254.54 407.50 251.65
  Q 405.65 242.76 399.10 235.89
  A 0.31 0.31 0.0 0 1 399.35 235.37
  Q 403.98 235.78 407.92 237.13
  Q 416.10 239.93 424.64 241.63
  A 3.17 3.16 31.6 0 0 427.20 241.02
  Q 429.99 238.87 435.03 237.31
  A 4.24 4.23 -79.0 0 0 437.10 235.91
  Q 442.10 229.71 446.05 224.32
  Q 449.24 219.95 450.42 215.90
  Q 453.82 204.10 461.49 196.38
  A 0.82 0.80 -37.4 0 0 461.63 195.41
  Q 456.51 186.16 457.12 174.74
  C 457.41 169.34 458.19 162.66 456.96 161.39
  Q 454.96 159.30 454.02 157.13
  A 0.22 0.22 0.0 0 1 454.39 156.91"
/>
<path stroke="#143646" vector-effect="non-scaling-stroke" d="
  M 518.78 276.64
  L 518.23 277.59
  A 0.50 0.50 0.0 0 0 518.72 278.34
  Q 521.95 277.97 524.07 280.90
  C 525.16 282.41 524.67 284.05 525.74 285.79
  Q 527.33 288.41 529.59 286.70
  A 0.84 0.83 49.3 0 1 530.70 286.79
  Q 535.21 291.47 534.90 297.88
  Q 534.77 300.40 535.61 301.37
  C 537.59 303.66 540.25 304.07 542.07 301.28
  Q 542.63 300.42 543.54 297.52
  C 546.16 289.20 546.25 283.07 543.24 274.43
  Q 541.19 268.55 538.23 258.05
  Q 537.73 256.30 536.28 254.17
  A 1.26 1.26 0.0 0 0 534.64 253.77
  Q 528.54 257.05 520.76 258.00
  A 1.65 1.64 -71.0 0 0 519.80 258.47
  Q 519.07 259.21 519.00 260.45
  A 1.18 1.17 84.4 0 1 518.14 261.50
  Q 507.52 264.41 497.37 264.74
  C 492.17 264.92 486.29 263.21 481.24 263.82
  Q 473.41 264.76 465.85 270.05
  A 1.40 1.38 77.7 0 0 465.28 270.95
  L 464.30 276.25
  A 0.13 0.12 -84.3 0 1 464.18 276.36
  L 463.89 276.40
  A 0.17 0.17 0.0 0 1 463.70 276.22
  L 464.34 270.56
  A 2.21 1.80 -39.1 0 1 464.44 270.08
  Q 469.09 255.65 466.89 240.99
  A 1.07 1.06 -25.2 0 1 467.23 240.05
  Q 481.22 227.64 474.90 209.36
  A 0.50 0.50 0.0 0 0 473.98 209.31
  C 469.39 219.27 462.01 226.66 454.87 233.86
  Q 452.43 236.31 447.68 243.24
  A 5.05 5.02 70.5 0 0 446.97 244.74
  C 445.16 251.08 444.45 253.92 440.01 259.00
  Q 438.46 260.78 438.80 262.19
  Q 440.20 267.93 443.24 279.00
  Q 445.10 285.80 447.59 288.32
  C 451.41 292.19 456.62 292.11 461.50 290.18
  C 465.06 288.78 468.04 287.61 472.21 286.55
  Q 484.37 283.46 497.72 279.04
  Q 507.18 275.91 518.38 275.94
  A 0.47 0.46 -74.8 0 1 518.78 276.64"
/>
<path stroke="#143646" vector-effect="non-scaling-stroke" d="
  M 392.24 29.61
  Q 391.54 29.67 391.45 30.14
  C 390.88 33.15 394.54 34.41 396.43 34.92
  A 0.20 0.20 0.0 0 0 396.68 34.74
  L 396.72 34.11
  A 0.13 0.12 -80.3 0 0 396.64 33.99
  Q 393.77 32.95 393.55 32.84
  Q 391.45 31.75 392.48 30.00
  A 0.26 0.26 0.0 0 0 392.24 29.61"
/>
<path stroke="#143646" vector-effect="non-scaling-stroke" d="
  M 393.2306 49.6974
  A 5.87 0.40 -104.9 0 0 394.3534 55.4729
  A 5.87 0.40 -104.9 0 0 396.2494 61.0426
  A 5.87 0.40 -104.9 0 0 395.1266 55.2671
  A 5.87 0.40 -104.9 0 0 393.2306 49.6974"
/>
<path stroke="#143646" vector-effect="non-scaling-stroke" d="
  M 422.72 112.51
  A 0.12 0.11 43.2 0 0 422.71 112.35
  Q 415.39 105.69 410.82 97.38
  A 0.19 0.19 0.0 0 0 410.56 97.30
  L 410.43 97.37
  A 0.11 0.11 0.0 0 0 410.38 97.52
  Q 414.23 106.74 422.48 112.68
  A 0.09 0.09 0.0 0 0 422.60 112.66
  L 422.72 112.51"
/>
<path stroke="#143646" vector-effect="non-scaling-stroke" d="
  M 446.01 124.37
  L 441.13 134.37
  L 441.22 134.41
  A 5.45 0.73 -64.0 0 0 444.26 129.83
  L 444.36 129.63
  A 5.45 0.73 -64.0 0 0 446.09 124.41
  L 446.01 124.37"
/>
<path stroke="#143646" vector-effect="non-scaling-stroke" d="
  M 446.64 134.31
  L 457.61 134.92
  A 0.53 0.53 0.0 0 1 457.90 135.87
  Q 454.78 138.25 453.80 141.97
  A 0.15 0.15 0.0 0 0 454.07 142.08
  C 456.49 138.01 458.87 135.04 464.15 135.83
  A 0.86 0.81 70.3 0 1 464.62 136.07
  L 466.88 138.32
  A 0.24 0.24 0.0 0 0 467.27 138.04
  Q 466.06 135.49 463.30 134.77
  A 0.65 0.59 47.6 0 0 463.08 134.75
  L 459.75 134.91
  A 1.54 1.50 51.1 0 1 459.18 134.84
  Q 452.43 132.59 446.61 133.90
  A 0.21 0.21 0.0 0 0 446.64 134.31"
/>
<path stroke="#143646" vector-effect="non-scaling-stroke" d="
  M 469.26 135.98
  Q 473.39 138.20 474.99 142.55
  A 0.34 0.33 66.9 0 0 475.45 142.74
  L 475.49 142.73
  A 0.22 0.22 0.0 0 0 475.60 142.44
  Q 473.61 138.21 472.64 137.06
  Q 471.43 135.62 469.43 135.44
  A 0.29 0.29 0.0 0 0 469.26 135.98"
/>
<path stroke="#143646" vector-effect="non-scaling-stroke" d="
  M 436.05 141.31
  C 432.28 146.81 428.86 154.66 430.81 161.53
  A 0.21 0.20 77.4 0 0 431.04 161.68
  L 431.05 161.67
  A 0.25 0.24 84.0 0 0 431.26 161.40
  C 430.67 155.59 431.97 151.34 434.72 145.18
  Q 435.50 143.43 436.31 141.45
  A 0.15 0.15 0.0 0 0 436.05 141.31"
/>
<path stroke="#143646" vector-effect="non-scaling-stroke" d="
  M 479.38 155.57
  L 475.31 163.69
  L 475.44 163.75
  A 4.38 0.67 -63.4 0 0 478.00 160.14
  L 478.15 159.85
  A 4.38 0.67 -63.4 0 0 479.51 155.63
  L 479.38 155.57"
/>
<path stroke="#143646" vector-effect="non-scaling-stroke" d="
  M 435.34 166.72
  A 0.15 0.15 0.0 0 0 435.42 166.90
  C 443.07 170.33 450.50 167.05 455.58 161.12
  A 0.29 0.29 0.0 0 0 455.20 160.69
  Q 454.16 161.37 452.39 162.87
  Q 444.86 169.23 435.63 166.56
  A 0.23 0.23 0.0 0 0 435.35 166.71
  L 435.34 166.72"
/>
<path stroke="#143646" vector-effect="non-scaling-stroke" d="
  M 437.6949 162.8600
  A 1.38 1.03 -150.0 0 0 438.3750 164.4420
  A 1.38 1.03 -150.0 0 0 440.0851 164.2400
  A 1.38 1.03 -150.0 0 0 439.4050 162.6580
  A 1.38 1.03 -150.0 0 0 437.6949 162.8600"
/>
<path stroke="#143646" vector-effect="non-scaling-stroke" d="
  M 437.78 186.85
  L 434.32 185.28
  A 2.25 2.25 0.0 0 1 433.36 184.46
  Q 430.60 180.31 431.12 174.75
  A 0.22 0.22 0.0 0 1 431.39 174.56
  Q 431.63 174.62 431.77 174.58
  A 0.37 0.36 61.9 0 0 431.94 174.00
  Q 429.74 171.17 430.13 165.01
  A 0.12 0.12 0.0 0 0 429.90 164.94
  C 428.74 167.28 429.25 170.82 430.25 173.66
  A 2.37 2.35 -50.7 0 1 430.36 174.81
  Q 429.52 180.14 432.72 185.03
  A 1.60 1.55 33.8 0 1 432.96 186.15
  Q 432.14 191.09 434.51 195.76
  A 0.82 0.75 -61.1 0 1 434.60 196.13
  L 434.62 200.94
  A 0.07 0.06 14.9 0 0 434.66 201.00
  L 434.94 201.16
  A 0.11 0.11 0.0 0 0 435.10 201.08
  L 435.72 196.49
  A 1.18 1.13 -58.8 0 0 435.54 195.69
  Q 433.03 191.70 433.79 186.36
  A 0.42 0.42 0.0 0 1 434.42 186.06
  Q 435.83 186.87 437.75 186.97
  A 0.06 0.06 0.0 0 0 437.78 186.85"
/>
<path stroke="#143646" vector-effect="non-scaling-stroke" d="
  M 478.40 176.94
  Q 474.63 181.21 474.77 186.54
  A 0.13 0.13 0.0 0 0 475.02 186.56
  Q 475.85 181.99 478.91 177.31
  A 0.02 0.02 0.0 0 0 478.90 177.28
  L 478.57 176.93
  A 0.11 0.11 0.0 0 0 478.40 176.94"
/>
<path stroke="#143646" vector-effect="non-scaling-stroke" d="
  M 441.67 201.95
  Q 444.55 196.13 443.19 191.06
  Q 441.78 185.77 438.85 180.37
  A 0.25 0.25 0.0 0 0 438.51 180.27
  L 438.50 180.27
  A 0.21 0.21 0.0 0 0 438.41 180.54
  Q 440.98 186.04 442.26 190.99
  C 443.34 195.17 441.65 198.57 441.41 201.88
  A 0.14 0.14 0.0 0 0 441.67 201.95"
/>
<path stroke="#143646" vector-effect="non-scaling-stroke" d="
  M 471.90 200.08
  C 469.13 201.78 467.54 205.95 465.89 209.38
  A 0.25 0.24 26.6 0 0 466.00 209.70
  L 466.01 209.70
  A 0.06 0.05 23.7 0 0 466.08 209.68
  L 472.11 200.30
  A 0.16 0.16 0.0 0 0 471.90 200.08"
/>
<path stroke="#143646" vector-effect="non-scaling-stroke" d="
  M 391.8453 215.1973
  A 3.80 0.28 -15.3 0 0 388.1061 215.9299
  A 3.80 0.28 -15.3 0 0 384.5147 217.2027
  A 3.80 0.28 -15.3 0 0 388.2539 216.4701
  A 3.80 0.28 -15.3 0 0 391.8453 215.1973"
/>
<path stroke="#143646" vector-effect="non-scaling-stroke" d="
  M 392.75 229.68
  L 413.87 233.40
  L 413.89 233.28
  A 10.55 0.81 10.0 0 0 403.64 230.65
  L 403.30 230.59
  A 10.55 0.81 10.0 0 0 392.77 229.55
  L 392.75 229.68"
/>
<path stroke="#143646" vector-effect="non-scaling-stroke" d="
  M 397.94 255.87
  C 395.95 252.29 395.07 249.19 393.51 245.16
  A 0.05 0.05 0.0 0 0 393.42 245.18
  Q 394.12 251.10 397.05 256.37
  Q 399.98 261.63 404.64 265.35
  A 0.05 0.05 0.0 0 0 404.71 265.28
  C 402.10 261.83 399.93 259.45 397.94 255.87"
/>
<path stroke="#143646" vector-effect="non-scaling-stroke" d="
  M 484.64 279.01
  C 480.36 280.50 476.82 280.87 472.12 281.81
  A 0.05 0.05 0.0 0 0 472.13 281.91
  Q 478.72 282.27 485.01 280.08
  Q 491.31 277.88 496.24 273.50
  A 0.05 0.05 0.0 0 0 496.18 273.41
  C 491.92 275.60 488.92 277.51 484.64 279.01"
/>
<path stroke="#143646" vector-effect="non-scaling-stroke" d="
  M 528.63 285.25
  Q 528.20 284.46 526.80 283.43
  A 0.32 0.32 0.0 0 0 526.30 283.73
  Q 526.55 285.60 528.01 286.02
  A 0.54 0.53 -6.2 0 0 528.63 285.25"
/>
</g>
<path fill="#143646" d="
  M 407.51 83.22
  C 409.10 86.52 413.42 87.96 417.08 89.25
  A 8.07 8.01 -17.1 0 1 419.14 90.33
  Q 424.02 93.88 427.26 99.74
  A 1.08 1.07 45.8 0 1 427.25 100.79
  L 424.20 106.18
  A 2.16 2.15 31.5 0 0 424.89 109.04
  Q 425.35 109.34 426.35 109.74
  Q 427.24 110.09 427.31 110.65
  Q 427.36 111.03 427.17 111.56
  Q 426.99 112.05 427.24 112.40
  Q 427.93 113.38 427.77 114.34
  Q 427.63 115.20 428.00 115.60
  Q 428.37 115.99 428.48 116.27
  A 1.49 1.45 44.2 0 1 428.51 117.33
  Q 427.77 119.51 429.17 120.94
  A 1.47 1.45 26.3 0 1 429.58 122.13
  L 429.30 124.66
  A 0.51 0.51 0.0 0 1 428.49 125.01
  C 421.72 120.10 416.69 117.15 413.76 111.99
  C 411.78 108.50 410.98 105.96 408.61 103.35
  C 406.11 100.60 405.25 96.80 402.74 94.00
  Q 398.92 89.74 395.58 82.26
  C 392.88 76.19 392.77 70.67 392.06 63.53
  Q 391.21 54.91 387.28 47.56
  A 1.31 1.31 0.0 0 0 385.27 47.18
  L 363.24 66.11
  A 0.61 0.61 0.0 0 0 363.15 66.95
  L 378.99 87.00
  A 3.15 3.14 -50.0 0 1 379.29 90.44
  C 378.25 92.38 375.39 94.17 373.45 94.98
  A 0.76 0.70 -77.0 0 0 373.17 95.17
  L 366.44 101.90
  A 2.65 2.64 37.4 0 1 363.25 102.32
  Q 361.34 101.23 359.79 99.46
  Q 352.55 91.26 346.38 83.92
  A 0.69 0.68 -40.0 0 0 345.41 83.84
  L 343.17 85.77
  A 1.32 1.32 0.0 0 1 341.38 85.70
  L 339.93 84.25
  A 0.86 0.85 47.1 0 0 338.78 84.20
  L 226.07 181.05
  A 1.29 1.28 -33.5 0 0 225.75 182.59
  C 228.19 187.59 222.94 191.62 218.37 191.38
  A 1.51 1.49 -64.2 0 0 217.30 191.76
  L 200.57 206.68
  A 1.09 1.09 0.0 0 0 200.31 207.96
  Q 200.41 208.17 200.63 208.43
  A 0.65 0.65 0.0 0 1 200.56 209.34
  L 152.86 251.87
  A 0.80 0.79 -39.9 0 0 152.76 252.96
  L 155.40 256.30
  A 0.79 0.77 72.2 0 0 155.97 256.60
  Q 160.38 256.86 160.67 261.34
  Q 160.88 264.51 157.46 265.59
  C 155.55 266.20 153.62 264.70 152.08 263.45
  A 0.74 0.73 44.0 0 0 151.14 263.46
  Q 148.74 265.55 143.56 270.56
  Q 141.37 272.68 139.30 270.56
  Q 136.28 267.47 133.65 264.94
  A 0.86 0.86 0.0 0 0 132.45 264.95
  L 130.63 266.78
  A 0.82 0.82 0.0 0 0 130.56 267.87
  Q 131.04 268.50 130.71 269.04
  C 130.21 269.84 127.84 270.35 126.69 271.15
  Q 122.96 273.73 122.54 277.70
  A 0.61 0.61 0.0 0 0 123.08 278.37
  L 123.35 278.40
  A 0.31 0.30 9.6 0 0 123.68 278.17
  Q 124.49 274.60 128.07 272.32
  A 2.99 2.47 -64.5 0 1 128.50 272.12
  C 130.89 271.27 132.84 270.86 132.99 268.02
  A 0.50 0.50 0.0 0 1 133.84 267.69
  C 136.57 270.36 139.95 275.44 143.77 272.52
  Q 147.47 269.69 151.02 265.82
  A 0.97 0.97 0.0 0 1 152.31 265.70
  C 157.51 269.56 163.84 265.64 162.29 259.32
  A 0.56 0.56 0.0 0 1 162.83 258.63
  L 194.71 258.47
  A 0.35 0.35 0.0 0 1 195.00 259.01
  L 157.10 316.32
  A 1.23 1.23 0.0 0 1 156.10 316.86
  L 17.50 317.55
  A 0.65 0.65 0.0 0 1 17.04 316.44
  C 33.32 300.35 54.39 280.13 72.84 260.83
  Q 74.59 258.99 76.25 258.95
  Q 82.91 258.77 119.55 258.88
  A 0.37 0.37 0.0 0 1 119.91 259.32
  Q 119.86 259.57 119.50 260.01
  Q 119.12 260.48 119.20 260.71
  Q 119.88 262.67 117.96 264.17
  Q 116.97 264.94 114.29 265.14
  Q 107.44 265.65 106.33 273.54
  Q 106.00 275.87 106.92 277.82
  A 0.63 0.63 0.0 0 0 108.11 277.48
  C 107.85 275.14 107.76 272.74 108.89 270.73
  Q 111.57 265.95 116.52 266.87
  A 1.57 1.55 -58.7 0 0 117.75 266.56
  L 121.82 263.35
  A 0.67 0.66 -38.7 0 0 121.93 262.41
  L 121.49 261.85
  A 1.15 1.14 -38.4 0 1 121.68 260.25
  L 124.79 257.79
  A 0.49 0.49 0.0 0 0 124.83 257.06
  L 118.46 250.69
  A 1.26 1.25 45.2 0 1 118.46 248.92
  L 126.08 241.30
  A 4.36 4.31 75.8 0 0 127.18 239.43
  C 128.11 236.20 129.28 233.90 133.27 234.48
  Q 134.61 234.68 135.03 235.11
  A 1.75 1.49 -46.5 0 1 134.91 237.33
  Q 131.26 241.38 124.22 247.97
  Q 123.24 248.88 123.03 249.35
  A 1.10 1.10 0.0 0 0 123.97 250.88
  Q 127.11 251.07 130.43 251.02
  Q 131.81 251.01 133.66 252.89
  Q 138.64 257.93 143.09 262.43
  A 1.23 1.23 0.0 0 0 144.72 262.53
  L 145.73 261.72
  A 0.99 0.99 0.0 0 0 145.82 260.24
  L 131.15 245.57
  A 0.87 0.86 46.1 0 1 131.17 244.32
  L 134.36 241.35
  A 5.44 5.32 -81.6 0 1 135.32 240.62
  Q 138.24 238.82 139.17 237.78
  A 1.06 1.06 0.0 0 1 140.91 238.03
  Q 141.65 239.58 142.72 240.07
  A 0.93 0.91 36.1 0 0 143.73 239.92
  L 173.04 213.80
  A 1.28 1.27 48.3 0 0 173.14 211.99
  L 172.93 211.75
  A 1.27 1.26 49.8 0 0 171.20 211.60
  L 168.88 213.43
  A 1.18 1.18 0.0 0 1 167.74 213.61
  C 165.86 212.92 163.61 210.76 165.58 208.93
  Q 176.43 198.84 186.61 190.44
  A 1.23 1.23 0.0 0 1 188.17 190.44
  Q 189.24 191.30 190.29 192.24
  Q 191.85 193.62 190.18 195.77
  A 0.40 0.40 0.0 0 0 190.45 196.41
  L 194.23 196.83
  A 0.96 0.94 -61.2 0 0 194.96 196.61
  L 208.97 184.57
  A 2.83 2.82 73.8 0 0 209.92 182.83
  Q 210.37 179.75 212.66 177.78
  C 215.28 175.52 216.76 174.28 219.83 176.59
  A 0.99 0.99 0.0 0 0 221.06 176.55
  L 334.90 78.74
  A 0.55 0.55 0.0 0 0 334.97 77.99
  L 333.11 75.63
  A 0.91 0.90 -39.6 0 1 333.23 74.38
  L 336.03 71.98
  A 0.75 0.74 49.4 0 0 336.11 70.94
  Q 330.23 63.99 324.33 56.67
  Q 322.30 54.15 321.45 52.22
  A 2.64 2.63 -35.3 0 1 321.95 49.33
  C 323.59 47.62 326.93 44.05 328.89 44.26
  A 2.24 1.84 -74.6 0 0 330.91 42.83
  Q 332.43 39.05 335.85 37.31
  A 1.54 1.52 36.0 0 1 336.78 37.17
  Q 338.33 37.44 339.50 38.77
  Q 346.95 47.22 355.36 57.75
  A 1.19 1.19 0.0 0 0 357.06 57.91
  L 381.58 36.85
  A 0.61 0.60 -31.3 0 0 381.75 36.18
  Q 381.52 35.54 381.45 35.39
  Q 381.28 35.00 381.43 34.52
  Q 381.78 33.46 383.24 33.47
  A 0.50 0.50 0.0 0 0 383.74 32.97
  L 383.73 31.50
  A 1.16 1.15 68.6 0 1 384.09 30.66
  Q 385.11 29.67 386.55 30.57
  A 0.35 0.34 4.1 0 0 387.05 30.14
  L 386.65 29.25
  A 1.56 1.56 0.0 0 1 388.93 27.32
  L 389.55 27.73
  A 0.64 0.64 0.0 0 0 390.53 27.34
  C 390.68 26.66 390.58 25.94 391.18 25.36
  Q 392.54 24.07 394.53 26.29
  A 1.06 1.06 0.0 0 0 396.01 26.38
  L 405.86 17.92
  A 2.06 2.06 0.0 0 1 408.82 18.21
  L 412.14 22.41
  A 2.09 2.09 0.0 0 1 411.87 25.29
  L 401.94 33.81
  A 0.69 0.69 0.0 0 1 400.82 33.46
  Q 399.64 28.82 394.27 29.68
  A 0.24 0.23 -8.0 0 0 394.07 29.93
  L 394.09 30.19
  A 0.04 0.04 0.0 0 0 394.13 30.22
  L 398.07 30.75
  A 1.41 1.41 0.0 0 1 399.19 31.59
  L 401.15 35.98
  A 2.15 2.12 -43.9 0 1 401.10 37.83
  Q 398.55 42.85 398.26 43.75
  C 397.53 46.01 398.21 47.28 398.90 49.35
  Q 400.12 52.94 402.25 59.72
  A 14.81 14.60 18.0 0 0 404.59 64.24
  C 407.05 67.48 410.39 71.03 412.04 74.58
  Q 414.57 80.02 416.02 87.33
  A 0.52 0.51 4.3 0 1 415.34 87.91
  Q 410.86 86.29 407.90 82.96
  A 0.24 0.24 0.0 0 0 407.51 83.22
  Z
  M 392.24 29.61
  Q 391.54 29.67 391.45 30.14
  C 390.88 33.15 394.54 34.41 396.43 34.92
  A 0.20 0.20 0.0 0 0 396.68 34.74
  L 396.72 34.11
  A 0.13 0.12 -80.3 0 0 396.64 33.99
  Q 393.77 32.95 393.55 32.84
  Q 391.45 31.75 392.48 30.00
  A 0.26 0.26 0.0 0 0 392.24 29.61
  Z
  M 393.2306 49.6974
  A 5.87 0.40 -104.9 0 0 394.3534 55.4729
  A 5.87 0.40 -104.9 0 0 396.2494 61.0426
  A 5.87 0.40 -104.9 0 0 395.1266 55.2671
  A 5.87 0.40 -104.9 0 0 393.2306 49.6974
  Z
  M 422.72 112.51
  A 0.12 0.11 43.2 0 0 422.71 112.35
  Q 415.39 105.69 410.82 97.38
  A 0.19 0.19 0.0 0 0 410.56 97.30
  L 410.43 97.37
  A 0.11 0.11 0.0 0 0 410.38 97.52
  Q 414.23 106.74 422.48 112.68
  A 0.09 0.09 0.0 0 0 422.60 112.66
  L 422.72 112.51
  Z"
/>
<path fill="#143646" d="
  M 454.02 157.13
  Q 454.96 159.30 456.96 161.39
  C 458.19 162.66 457.41 169.34 457.12 174.74
  Q 456.51 186.16 461.63 195.41
  A 0.82 0.80 -37.4 0 1 461.49 196.38
  Q 453.82 204.10 450.42 215.90
  Q 449.24 219.95 446.05 224.32
  Q 442.10 229.71 437.10 235.91
  A 4.24 4.23 -79.0 0 1 435.03 237.31
  Q 429.99 238.87 427.20 241.02
  A 3.17 3.16 31.6 0 1 424.64 241.63
  Q 416.10 239.93 407.92 237.13
  Q 403.98 235.78 399.35 235.37
  A 0.31 0.31 0.0 0 0 399.10 235.89
  Q 405.65 242.76 407.50 251.65
  Q 408.10 254.54 407.78 260.98
  Q 407.57 265.13 409.33 274.20
  Q 411.07 283.23 413.47 290.06
  A 1.16 1.16 0.0 0 0 414.68 290.83
  C 419.46 290.31 418.47 300.32 418.40 302.76
  A 3.65 3.64 32.1 0 0 418.80 304.50
  C 421.83 310.33 414.34 312.00 410.24 312.01
  Q 401.85 312.01 393.08 314.26
  C 384.18 316.53 373.50 314.60 368.51 306.29
  C 366.93 303.65 366.47 299.71 370.71 299.48
  Q 372.84 299.36 380.02 297.79
  Q 387.96 296.06 392.20 291.18
  A 0.77 0.76 53.8 0 0 392.32 290.38
  L 391.92 289.47
  A 0.45 0.45 0.0 0 1 392.32 288.84
  L 394.42 288.83
  A 1.38 1.36 -68.9 0 0 395.44 288.37
  C 398.74 284.68 397.76 281.18 395.94 276.57
  Q 392.56 268.01 386.83 257.42
  C 384.86 253.77 382.85 246.71 380.59 241.92
  Q 378.71 237.92 377.70 235.42
  C 374.93 228.59 375.33 217.42 384.19 215.42
  C 387.27 214.73 391.33 214.22 394.90 212.96
  Q 414.09 206.15 434.46 208.20
  A 0.39 0.39 0.0 0 0 434.86 207.66
  Q 432.09 201.26 432.91 195.41
  A 1.59 1.55 34.7 0 0 432.71 194.39
  Q 430.15 189.97 430.68 184.70
  A 3.05 2.99 -59.1 0 0 430.21 182.74
  Q 427.42 178.39 428.17 173.73
  A 4.18 4.10 -51.4 0 0 427.95 171.58
  C 426.58 167.96 427.14 165.19 427.79 161.96
  A 2.79 2.75 -51.3 0 0 427.62 160.32
  Q 424.55 153.24 426.63 144.87
  Q 429.52 133.26 430.45 122.55
  A 0.36 0.35 6.8 0 1 430.86 122.23
  Q 434.49 122.81 436.85 121.72
  A 1.19 1.17 -25.8 0 1 438.40 122.25
  Q 440.57 126.50 440.88 130.97
  A 0.19 0.19 0.0 0 0 441.24 131.03
  C 442.28 128.41 440.61 124.75 439.48 121.93
  A 1.93 1.92 -18.8 0 0 437.15 120.79
  Q 434.52 121.56 431.99 121.36
  C 430.19 121.21 428.62 119.62 429.48 117.78
  C 430.38 115.86 428.51 115.59 428.85 114.02
  Q 429.05 113.13 428.55 112.78
  Q 428.08 112.44 428.03 111.96
  C 427.94 111.14 428.37 110.29 428.13 109.68
  A 1.09 1.07 -3.1 0 0 427.40 109.04
  Q 425.35 108.49 424.86 107.41
  A 0.92 0.88 49.9 0 1 424.92 106.54
  L 428.56 101.04
  A 1.57 1.56 -51.3 0 0 428.35 99.05
  Q 426.92 97.65 427.81 95.08
  Q 428.91 91.92 430.27 88.66
  A 0.55 0.55 0.0 0 0 429.76 87.90
  L 428.94 87.91
  A 0.68 0.68 0.0 0 1 428.27 87.09
  Q 428.46 86.20 428.11 85.40
  A 0.93 0.93 0.0 0 1 428.22 84.45
  Q 431.27 80.46 434.51 79.78
  C 444.63 77.64 455.55 75.77 461.94 85.56
  Q 466.51 92.55 463.34 101.62
  C 462.30 104.60 459.50 108.80 458.95 112.00
  Q 458.08 117.16 460.76 121.76
  A 4.64 4.54 5.1 0 0 461.80 122.98
  Q 462.29 123.40 468.37 128.37
  Q 471.64 131.04 473.42 136.78
  A 2.55 2.53 11.7 0 0 474.23 138.00
  Q 483.89 146.06 479.45 160.37
  A 1.01 0.91 53.4 0 0 479.42 160.68
  C 479.82 165.68 482.04 172.69 480.35 178.88
  C 478.51 185.62 477.04 192.88 477.70 200.23
  C 477.94 202.95 474.04 206.96 472.66 209.69
  C 467.76 219.35 462.22 224.94 453.65 233.64
  Q 451.69 235.62 446.71 242.85
  A 5.85 5.63 71.3 0 0 445.92 244.53
  L 443.77 251.88
  A 3.56 3.53 -19.4 0 1 443.24 252.97
  L 437.77 260.56
  A 2.05 2.05 0.0 0 1 435.58 261.35
  L 435.04 261.21
  A 0.58 0.58 0.0 0 1 434.85 260.17
  Q 436.21 259.20 437.35 257.25
  A 0.27 0.27 0.0 0 0 436.91 256.95
  L 433.08 261.57
  A 2.20 2.19 27.1 0 1 430.84 262.29
  L 430.35 262.16
  A 0.92 0.92 0.0 0 1 429.88 260.67
  L 432.92 257.13
  A 1.17 1.16 -22.5 0 0 433.20 256.46
  Q 433.22 256.24 432.83 256.23
  A 0.15 0.10 -55.3 0 0 432.75 256.26
  Q 432.30 256.74 428.66 260.90
  A 2.19 2.19 0.0 0 1 425.87 261.34
  L 425.83 261.32
  A 1.50 1.49 36.7 0 1 425.50 259.10
  L 429.18 254.74
  A 0.51 0.50 37.1 0 0 429.07 253.99
  L 428.81 253.82
  A 0.01 0.00 -31.7 0 0 428.80 253.82
  L 424.38 259.14
  A 1.73 1.72 -50.0 0 1 421.93 259.36
  L 421.87 259.31
  A 1.58 1.56 39.0 0 1 421.62 257.05
  Q 425.70 252.18 428.31 246.51
  A 0.28 0.27 19.2 0 0 428.12 246.13
  L 428.07 246.14
  A 0.41 0.38 12.5 0 0 427.78 246.31
  L 424.54 251.13
  A 3.65 3.63 13.0 0 1 422.01 252.70
  L 421.68 252.75
  A 0.81 0.81 0.0 0 1 420.89 251.55
  C 423.52 246.86 426.01 242.57 429.47 240.70
  Q 431.59 239.56 435.02 238.47
  A 6.51 6.45 -79.2 0 0 438.08 236.37
  Q 443.60 229.46 446.84 225.10
  Q 449.66 221.29 450.90 217.92
  C 452.66 213.10 453.68 209.31 455.83 205.61
  Q 457.93 201.99 462.50 196.59
  Q 464.53 194.19 465.40 190.10
  A 0.22 0.21 12.7 0 0 465.24 189.85
  L 465.23 189.84
  A 0.35 0.35 0.0 0 0 465.00 190.03
  L 462.96 194.36
  A 0.45 0.45 0.0 0 1 462.16 194.37
  C 457.35 184.73 458.27 176.56 458.79 165.00
  Q 458.80 164.78 458.53 163.53
  A 0.41 0.40 10.8 0 1 459.15 163.11
  L 463.82 166.21
  A 0.13 0.13 0.0 0 0 463.98 166.01
  Q 461.89 163.69 458.42 161.19
  Q 456.83 160.05 454.39 156.91
  A 0.22 0.22 0.0 0 0 454.02 157.13
  Z
  M 446.01 124.37
  L 441.13 134.37
  L 441.22 134.41
  A 5.45 0.73 -64.0 0 0 444.26 129.83
  L 444.36 129.63
  A 5.45 0.73 -64.0 0 0 446.09 124.41
  L 446.01 124.37
  Z
  M 446.64 134.31
  L 457.61 134.92
  A 0.53 0.53 0.0 0 1 457.90 135.87
  Q 454.78 138.25 453.80 141.97
  A 0.15 0.15 0.0 0 0 454.07 142.08
  C 456.49 138.01 458.87 135.04 464.15 135.83
  A 0.86 0.81 70.3 0 1 464.62 136.07
  L 466.88 138.32
  A 0.24 0.24 0.0 0 0 467.27 138.04
  Q 466.06 135.49 463.30 134.77
  A 0.65 0.59 47.6 0 0 463.08 134.75
  L 459.75 134.91
  A 1.54 1.50 51.1 0 1 459.18 134.84
  Q 452.43 132.59 446.61 133.90
  A 0.21 0.21 0.0 0 0 446.64 134.31
  Z
  M 469.26 135.98
  Q 473.39 138.20 474.99 142.55
  A 0.34 0.33 66.9 0 0 475.45 142.74
  L 475.49 142.73
  A 0.22 0.22 0.0 0 0 475.60 142.44
  Q 473.61 138.21 472.64 137.06
  Q 471.43 135.62 469.43 135.44
  A 0.29 0.29 0.0 0 0 469.26 135.98
  Z
  M 436.05 141.31
  C 432.28 146.81 428.86 154.66 430.81 161.53
  A 0.21 0.20 77.4 0 0 431.04 161.68
  L 431.05 161.67
  A 0.25 0.24 84.0 0 0 431.26 161.40
  C 430.67 155.59 431.97 151.34 434.72 145.18
  Q 435.50 143.43 436.31 141.45
  A 0.15 0.15 0.0 0 0 436.05 141.31
  Z
  M 479.38 155.57
  L 475.31 163.69
  L 475.44 163.75
  A 4.38 0.67 -63.4 0 0 478.00 160.14
  L 478.15 159.85
  A 4.38 0.67 -63.4 0 0 479.51 155.63
  L 479.38 155.57
  Z
  M 435.34 166.72
  A 0.15 0.15 0.0 0 0 435.42 166.90
  C 443.07 170.33 450.50 167.05 455.58 161.12
  A 0.29 0.29 0.0 0 0 455.20 160.69
  Q 454.16 161.37 452.39 162.87
  Q 444.86 169.23 435.63 166.56
  A 0.23 0.23 0.0 0 0 435.35 166.71
  L 435.34 166.72
  Z
  M 437.6949 162.8600
  A 1.38 1.03 -150.0 0 0 438.3750 164.4420
  A 1.38 1.03 -150.0 0 0 440.0851 164.2400
  A 1.38 1.03 -150.0 0 0 439.4050 162.6580
  A 1.38 1.03 -150.0 0 0 437.6949 162.8600
  Z
  M 437.78 186.85
  L 434.32 185.28
  A 2.25 2.25 0.0 0 1 433.36 184.46
  Q 430.60 180.31 431.12 174.75
  A 0.22 0.22 0.0 0 1 431.39 174.56
  Q 431.63 174.62 431.77 174.58
  A 0.37 0.36 61.9 0 0 431.94 174.00
  Q 429.74 171.17 430.13 165.01
  A 0.12 0.12 0.0 0 0 429.90 164.94
  C 428.74 167.28 429.25 170.82 430.25 173.66
  A 2.37 2.35 -50.7 0 1 430.36 174.81
  Q 429.52 180.14 432.72 185.03
  A 1.60 1.55 33.8 0 1 432.96 186.15
  Q 432.14 191.09 434.51 195.76
  A 0.82 0.75 -61.1 0 1 434.60 196.13
  L 434.62 200.94
  A 0.07 0.06 14.9 0 0 434.66 201.00
  L 434.94 201.16
  A 0.11 0.11 0.0 0 0 435.10 201.08
  L 435.72 196.49
  A 1.18 1.13 -58.8 0 0 435.54 195.69
  Q 433.03 191.70 433.79 186.36
  A 0.42 0.42 0.0 0 1 434.42 186.06
  Q 435.83 186.87 437.75 186.97
  A 0.06 0.06 0.0 0 0 437.78 186.85
  Z
  M 478.40 176.94
  Q 474.63 181.21 474.77 186.54
  A 0.13 0.13 0.0 0 0 475.02 186.56
  Q 475.85 181.99 478.91 177.31
  A 0.02 0.02 0.0 0 0 478.90 177.28
  L 478.57 176.93
  A 0.11 0.11 0.0 0 0 478.40 176.94
  Z
  M 441.67 201.95
  Q 444.55 196.13 443.19 191.06
  Q 441.78 185.77 438.85 180.37
  A 0.25 0.25 0.0 0 0 438.51 180.27
  L 438.50 180.27
  A 0.21 0.21 0.0 0 0 438.41 180.54
  Q 440.98 186.04 442.26 190.99
  C 443.34 195.17 441.65 198.57 441.41 201.88
  A 0.14 0.14 0.0 0 0 441.67 201.95
  Z
  M 471.90 200.08
  C 469.13 201.78 467.54 205.95 465.89 209.38
  A 0.25 0.24 26.6 0 0 466.00 209.70
  L 466.01 209.70
  A 0.06 0.05 23.7 0 0 466.08 209.68
  L 472.11 200.30
  A 0.16 0.16 0.0 0 0 471.90 200.08
  Z
  M 391.8453 215.1973
  A 3.80 0.28 -15.3 0 0 388.1061 215.9299
  A 3.80 0.28 -15.3 0 0 384.5147 217.2027
  A 3.80 0.28 -15.3 0 0 388.2539 216.4701
  A 3.80 0.28 -15.3 0 0 391.8453 215.1973
  Z
  M 392.75 229.68
  L 413.87 233.40
  L 413.89 233.28
  A 10.55 0.81 10.0 0 0 403.64 230.65
  L 403.30 230.59
  A 10.55 0.81 10.0 0 0 392.77 229.55
  L 392.75 229.68
  Z
  M 397.94 255.87
  C 395.95 252.29 395.07 249.19 393.51 245.16
  A 0.05 0.05 0.0 0 0 393.42 245.18
  Q 394.12 251.10 397.05 256.37
  Q 399.98 261.63 404.64 265.35
  A 0.05 0.05 0.0 0 0 404.71 265.28
  C 402.10 261.83 399.93 259.45 397.94 255.87
  Z"
/>
<path fill="#143646" d="
  M 518.38 275.94
  Q 507.18 275.91 497.72 279.04
  Q 484.37 283.46 472.21 286.55
  C 468.04 287.61 465.06 288.78 461.50 290.18
  C 456.62 292.11 451.41 292.19 447.59 288.32
  Q 445.10 285.80 443.24 279.00
  Q 440.20 267.93 438.80 262.19
  Q 438.46 260.78 440.01 259.00
  C 444.45 253.92 445.16 251.08 446.97 244.74
  A 5.05 5.02 70.5 0 1 447.68 243.24
  Q 452.43 236.31 454.87 233.86
  C 462.01 226.66 469.39 219.27 473.98 209.31
  A 0.50 0.50 0.0 0 1 474.90 209.36
  Q 481.22 227.64 467.23 240.05
  A 1.07 1.06 -25.2 0 0 466.89 240.99
  Q 469.09 255.65 464.44 270.08
  A 2.21 1.80 -39.1 0 0 464.34 270.56
  L 463.70 276.22
  A 0.17 0.17 0.0 0 0 463.89 276.40
  L 464.18 276.36
  A 0.13 0.12 -84.3 0 0 464.30 276.25
  L 465.28 270.95
  A 1.40 1.38 77.7 0 1 465.85 270.05
  Q 473.41 264.76 481.24 263.82
  C 486.29 263.21 492.17 264.92 497.37 264.74
  Q 507.52 264.41 518.14 261.50
  A 1.18 1.17 84.4 0 0 519.00 260.45
  Q 519.07 259.21 519.80 258.47
  A 1.65 1.64 -71.0 0 1 520.76 258.00
  Q 528.54 257.05 534.64 253.77
  A 1.26 1.26 0.0 0 1 536.28 254.17
  Q 537.73 256.30 538.23 258.05
  Q 541.19 268.55 543.24 274.43
  C 546.25 283.07 546.16 289.20 543.54 297.52
  Q 542.63 300.42 542.07 301.28
  C 540.25 304.07 537.59 303.66 535.61 301.37
  Q 534.77 300.40 534.90 297.88
  Q 535.21 291.47 530.70 286.79
  A 0.84 0.83 49.3 0 0 529.59 286.70
  Q 527.33 288.41 525.74 285.79
  C 524.67 284.05 525.16 282.41 524.07 280.90
  Q 521.95 277.97 518.72 278.34
  A 0.50 0.50 0.0 0 1 518.23 277.59
  L 518.78 276.64
  A 0.47 0.46 -74.8 0 0 518.38 275.94
  Z
  M 484.64 279.01
  C 480.36 280.50 476.82 280.87 472.12 281.81
  A 0.05 0.05 0.0 0 0 472.13 281.91
  Q 478.72 282.27 485.01 280.08
  Q 491.31 277.88 496.24 273.50
  A 0.05 0.05 0.0 0 0 496.18 273.41
  C 491.92 275.60 488.92 277.51 484.64 279.01
  Z
  M 528.63 285.25
  Q 528.20 284.46 526.80 283.43
  A 0.32 0.32 0.0 0 0 526.30 283.73
  Q 526.55 285.60 528.01 286.02
  A 0.54 0.53 -6.2 0 0 528.63 285.25
  Z"
/>
</svg>
