<?xml version="1.0" encoding="UTF-8" standalone="no"?>
<svg
   version="1.1"
   viewBox="117 0 75 75"
   id="svg12"
   xmlns="http://www.w3.org/2000/svg">
  <path
     fill="#111214"
     d="m 272.92778,57.680684 12.07,9.47 a 0.08276473,0.08276473 0 0 1 -0.07,0.15 l -42.51,-11.39 a 0.54,0.54 0 0 1 -0.24,-0.9 l 5.33,-5.33 a 1.93,1.91 63.9 0 0 0.54,-1.62 l -0.88,-6.33 a 0.27,0.28 73.5 0 0 -0.39,-0.21 l -49.7,24.02 a 0.49,0.49 0 0 1 -0.7,-0.5 l 1.91,-13.82 a 0.83,0.85 75.8 0 1 0.34,-0.56 l 11.2,-8.25 a 0.38,0.38 0 0 0 -0.03,-0.63 l -6.88,-3.97 a 0.64,0.63 42 0 1 -0.06,-1.06 l 4.31,-3.18 a 1.42,1.44 67.5 0 0 0.57,-1.35 l -0.94,-6.87 a 0.38,0.38 0 0 0 -0.63,-0.23 q -0.83,0.76 -8.44,6.57 -4.06,3.1 -9.04,5.42 -6.17,2.87 -15.88,7.83 a 0.26,0.26 0 0 0 0.08,0.49 l 7.88,1.09 a 0.51,0.51 0 0 1 0.19,0.95 l -22.99,13.28 a 0.27,0.28 84.8 0 1 -0.4,-0.33 l 2.81,-7.83 a 1.08,1.09 24.7 0 0 -0.48,-1.31 l -8.18,-4.73 a 0.53,0.53 0 0 1 -0.14,-0.81 l 9.42,-11.1 a 0.54,0.54 0 0 0 -0.23,-0.86 l -11.13,-4 a 0.5,0.5 0 0 1 -0.24,-0.75 c 1.31,-1.93 3.82,-4.6 4.53,-7.79 a 1.49,1.2 57.2 0 0 0.03,-0.29 l -0.21,-15.2699998 a 0.37,0.37 0 0 0 -0.62,-0.27 l -31.7,28.9399998 a 0.3,0.3 0 0 0 -0.04,0.4 l 24.43,33.16 a 0.2,0.19 81.7 0 1 -0.22,0.3 q -30.26,-11 -46.280002,-16.38 -0.26,-0.09 -0.31,-0.29 -0.1,-0.38 0.15,-0.55 7.100002,-4.64 10.280002,-6.68 a 0.84,0.84 0 0 0 -0.03,-1.43 l -4.82,-2.78 a 1.52,1.51 18.9 0 1 -0.75,-1.52 l 1.96,-14.21 a 0.45,0.45 0 0 0 -0.73,-0.41 l -49.240002,40.63 a 0.23,0.23 0 0 1 -0.36,-0.26 q 3.33,-9.3 4.77,-13.3 0.91,-2.51 0.35,-9.35 a 0.39,0.38 73.7 0 0 -0.56,-0.31 q -4.37,2.28 -23.58,12.72 -10.93,5.94 -16.87,8.14 -2.12,0.78 -17.5700002,6.62 a 0.08,0.08 0 0 1 -0.06,-0.14 l 58.6600002,-31.54 a 2.02,2.04 39.8 0 1 1.6,-0.15 l 14.07,4.59 a 3,3 0 0 0 2.84,-0.54 l 26.600002,-21.95 a 0.81,0.8 44 0 1 1.02,-0.01 l 13.57,10.65 a 0.92,0.92 0 0 0 1.18,-0.05 l 32.32,-29.4899998 a 0.82,0.82 0 0 1 1.14,0.02 l 26.52,26.5199998 a 1.3,1.28 53.3 0 0 1.52,0.23 l 10.27,-5.53 a 0.82,0.81 54.5 0 1 0.98,0.17 l 3.92,4.3 a 1.17,1.16 49 0 0 1.6,0.12 l 6.45,-5.33 a 1.02,1 46.4 0 1 1.32,0.04 l 25,23.03 a 1.22,1.21 53.2 0 0 1.35,0.2 l 12.54,-6.06 a 1.95,1.97 46.6 0 1 1.79,0.04 l 57.68,30.97 a 0.22,0.21 27.8 0 1 0.09,0.28 l -0.01,0.01 a 0.12,0.12 0 0 1 -0.15,0.06 l -32.79,-11.8 a 0.11,0.11 0 0 0 -0.1,0.19 z" />
</svg>
