<?xml version="1.0" encoding="UTF-8" standalone="no"?>
<!DOCTYPE svg PUBLIC "-//W3C//DTD SVG 1.1//EN" "http://www.w3.org/Graphics/SVG/1.1/DTD/svg11.dtd">
<svg xmlns="http://www.w3.org/2000/svg" version="1.1" viewBox="0.00 0.00 703.00 521.00">
<g stroke-width="2.00" fill="none" stroke-linecap="butt">
<path stroke="#143646" vector-effect="non-scaling-stroke" d="
  M 0.00 404.23
  Q 2.48 420.81 17.07 421.90
  C 26.40 422.60 33.23 417.53 35.94 408.71
  Q 36.88 405.64 36.88 399.20
  Q 36.86 333.52 36.89 327.28
  A 0.45 0.44 0.0 0 0 36.44 326.84
  L 23.40 326.90
  A 0.62 0.61 89.5 0 0 22.80 327.52
  L 23.18 403.79
  A 4.49 4.49 0.0 0 1 18.75 408.30
  L 18.31 408.31
  A 4.37 4.36 89.6 0 1 13.89 403.94
  L 13.87 327.26
  A 0.28 0.28 0.0 0 0 13.58 326.98
  L 0.00 327.05"
/>
</g>
</svg>