<?xml version="1.0" encoding="UTF-8" standalone="no"?>
<!DOCTYPE svg PUBLIC "-//W3C//DTD SVG 1.1//EN" "http://www.w3.org/Graphics/SVG/1.1/DTD/svg11.dtd">
<svg xmlns="http://www.w3.org/2000/svg" version="1.1" viewBox="0.00 0.00 880.00 1168.00">
<g stroke-width="2.00" fill="none" stroke-linecap="butt">
<path stroke="#828283" vector-effect="non-scaling-stroke" d="
  M 751.60 543.53
  A 0.24 0.22 27.2 0 0 751.49 543.23
  L 631.32 478.83
  A 0.80 0.76 -43.0 0 0 630.62 478.82
  L 602.87 492.25
  A 0.86 0.85 -36.5 0 1 601.91 492.11
  L 549.75 444.16
  A 0.53 0.53 0.0 0 0 549.08 444.13
  L 532.79 456.15
  A 0.53 0.52 50.6 0 1 532.09 456.08
  L 523.09 446.23
  A 0.43 0.42 55.5 0 0 522.58 446.13
  L 498.95 457.56
  A 0.42 0.42 0.0 0 1 498.47 457.48
  L 442.84 402.64
  A 0.77 0.77 0.0 0 0 441.78 402.62
  L 375.10 463.50
  A 0.55 0.55 0.0 0 1 374.40 463.52
  L 345.11 440.81
  A 0.57 0.57 0.0 0 0 344.40 440.82
  L 288.09 487.33
  A 0.66 0.65 -56.0 0 1 287.49 487.45
  L 254.06 477.81
  A 1.36 1.36 0.0 0 0 253.08 477.91
  Q 184.96 513.73 134.88 540.89
  Q 133.48 541.65 131.47 543.03
  A 0.03 0.03 0.0 0 0 131.49 543.08
  Q 171.88 527.86 181.22 524.14
  Q 183.84 523.09 185.60 522.12
  Q 216.47 505.04 251.93 486.35
  A 0.43 0.43 0.0 0 1 252.56 486.71
  L 253.09 500.95
  A 1.70 1.65 54.4 0 1 253.00 501.55
  L 241.95 533.78
  A 0.26 0.26 0.0 0 0 242.36 534.06
  L 343.81 450.27
  A 0.32 0.32 0.0 0 1 344.33 450.56
  L 340.22 480.86
  A 2.05 2.05 0.0 0 0 341.02 482.77
  L 352.50 491.31
  A 0.29 0.29 0.0 0 1 352.48 491.79
  L 329.50 506.36
  A 0.45 0.45 0.0 0 0 329.59 507.17
  L 425.67 541.08
  A 0.12 0.12 0.0 0 0 425.81 540.90
  L 375.79 473.13
  A 0.64 0.63 -39.4 0 1 375.88 472.28
  L 440.84 412.98
  A 0.59 0.59 0.0 0 1 441.83 413.41
  L 441.83 447.19
  A 1.62 1.58 -27.7 0 1 441.53 448.12
  L 431.79 462.13
  A 0.32 0.32 0.0 0 0 431.94 462.61
  L 456.34 471.22
  A 0.49 0.49 0.0 0 1 456.55 472.00
  L 436.64 495.73
  A 0.36 0.35 -54.3 0 0 436.72 496.25
  L 454.28 507.30
  A 0.62 0.61 -66.4 0 1 454.54 507.98
  L 449.24 526.35
  A 0.19 0.19 0.0 0 0 449.52 526.56
  L 497.78 497.77
  A 0.21 0.20 -54.6 0 0 497.72 497.39
  L 479.39 494.11
  A 0.14 0.14 0.0 0 1 479.35 493.84
  Q 489.03 489.24 516.14 476.04
  Q 521.48 473.43 525.53 470.34
  Q 532.78 464.79 548.20 453.53
  A 0.57 0.57 0.0 0 1 549.11 453.93
  L 550.88 468.62
  A 0.81 0.79 -23.4 0 1 550.59 469.33
  L 539.82 478.23
  A 0.36 0.35 40.5 0 0 539.87 478.81
  L 555.48 487.82
  A 0.15 0.15 0.0 0 1 555.49 488.07
  L 532.16 505.29
  A 2.82 2.82 0.0 0 0 531.02 507.25
  L 527.79 535.39
  A 0.52 0.52 0.0 0 0 528.54 535.92
  L 630.00 486.81
  A 0.54 0.53 73.8 0 1 630.76 487.23
  L 632.40 500.93
  A 1.52 1.51 -27.4 0 1 632.02 502.12
  L 619.88 515.32
  A 0.39 0.39 0.0 0 0 620.07 515.96
  L 707.85 539.18
  A 0.29 0.29 0.0 0 0 708.09 538.67
  L 682.30 519.47
  A 0.17 0.17 0.0 0 1 682.46 519.18
  Q 751.69 543.74 751.53 543.78
  A 0.03 0.03 0.0 0 1 751.50 543.74
  L 751.60 543.53"
/>
<path stroke="#828283" vector-effect="non-scaling-stroke" d="
  M 431.75 661.49
  A 0.34 0.34 0.0 0 0 432.08 661.26
  L 461.63 570.69
  A 0.34 0.34 0.0 0 0 461.31 570.24
  L 441.52 570.24
  A 0.34 0.34 0.0 0 0 441.19 570.47
  L 420.51 633.85
  A 0.34 0.34 0.0 0 1 419.86 633.85
  L 399.96 570.48
  A 0.34 0.34 0.0 0 0 399.64 570.24
  L 379.72 570.24
  A 0.34 0.34 0.0 0 0 379.39 570.47
  L 358.80 633.55
  A 0.34 0.34 0.0 0 1 358.15 633.55
  L 338.34 570.48
  A 0.34 0.34 0.0 0 0 338.02 570.24
  L 316.57 570.24
  A 0.34 0.34 0.0 0 0 316.24 570.68
  L 345.53 661.26
  A 0.34 0.34 0.0 0 0 345.86 661.50
  L 368.61 661.50
  A 0.34 0.34 0.0 0 0 368.94 661.27
  L 388.71 600.72
  A 0.34 0.34 0.0 0 1 389.35 600.73
  L 408.92 661.25
  A 0.34 0.34 0.0 0 0 409.25 661.49
  L 431.75 661.49"
/>
<path stroke="#828283" vector-effect="non-scaling-stroke" d="
  M 170.52 663.09
  C 196.49 663.11 211.94 647.78 211.99 622.00
  Q 212.03 599.32 212.02 570.69
  A 0.40 0.40 0.0 0 0 211.62 570.29
  L 190.99 570.29
  A 0.29 0.29 0.0 0 0 190.70 570.58
  Q 190.74 584.96 190.75 622.50
  C 190.75 635.49 184.46 644.71 170.54 644.70
  C 156.61 644.69 150.33 635.45 150.36 622.46
  Q 150.44 584.93 150.50 570.55
  A 0.29 0.29 0.0 0 0 150.21 570.25
  L 129.58 570.22
  A 0.40 0.40 0.0 0 0 129.18 570.62
  Q 129.12 599.25 129.12 621.93
  C 129.13 647.71 144.56 663.07 170.52 663.09"
/>
<path stroke="#828283" vector-effect="non-scaling-stroke" d="
  M 231.86 661.44
  L 252.47 661.44
  A 0.27 0.27 0.0 0 0 252.74 661.17
  L 252.74 636.56
  A 0.35 0.35 0.0 0 1 253.10 636.21
  Q 264.78 636.60 276.01 636.16
  C 298.90 635.26 315.35 618.26 310.09 594.83
  C 306.55 579.09 291.25 571.03 275.97 570.52
  Q 262.03 570.05 232.10 570.30
  A 0.51 0.51 0.0 0 0 231.59 570.81
  L 231.59 661.18
  A 0.27 0.26 -0.0 0 0 231.86 661.44"
/>
<path stroke="#828283" vector-effect="non-scaling-stroke" d="
  M 508.41 642.16
  Q 519.04 642.18 529.23 642.21
  A 0.53 0.53 0.0 0 1 529.72 642.53
  L 538.14 661.34
  A 0.35 0.35 0.0 0 0 538.46 661.55
  L 559.44 661.55
  A 0.40 0.40 0.0 0 0 559.80 660.99
  L 519.44 570.80
  A 0.82 0.81 -11.5 0 0 518.69 570.31
  Q 513.57 570.31 508.54 570.30
  Q 503.51 570.29 498.39 570.27
  A 0.82 0.81 11.7 0 0 497.64 570.76
  L 456.95 660.80
  A 0.40 0.40 0.0 0 0 457.31 661.36
  L 478.29 661.44
  A 0.35 0.35 0.0 0 0 478.61 661.23
  L 487.10 642.45
  A 0.53 0.53 0.0 0 1 487.59 642.14
  Q 497.78 642.14 508.41 642.16"
/>
<path stroke="#828283" vector-effect="non-scaling-stroke" d="
  M 649.50 661.19
  Q 649.50 660.97 649.38 660.80
  Q 640.33 648.56 629.35 632.20
  A 0.13 0.13 0.0 0 1 629.40 632.02
  Q 642.68 625.72 646.43 612.82
  C 649.96 600.66 647.08 587.62 637.03 579.15
  C 630.34 573.51 619.99 570.45 611.73 570.35
  Q 599.73 570.19 568.60 570.27
  A 0.26 0.26 0.0 0 0 568.34 570.53
  L 568.34 661.00
  A 0.48 0.47 -90.0 0 0 568.81 661.48
  L 589.28 661.48
  A 0.32 0.32 0.0 0 0 589.60 661.16
  L 589.60 636.16
  A 0.28 0.27 -0.0 0 1 589.88 635.89
  L 608.38 635.89
  A 1.10 1.07 -16.7 0 1 609.28 636.36
  L 626.03 660.93
  A 1.34 1.33 72.6 0 0 627.13 661.51
  L 649.17 661.51
  A 0.33 0.33 0.0 0 0 649.50 661.19"
/>
<path stroke="#828283" vector-effect="non-scaling-stroke" d="
  M 663.21 570.62
  L 663.21 661.02
  A 0.35 0.35 0.0 0 0 663.56 661.37
  L 708.44 661.37
  A 47.05 43.72 0.0 0 0 755.49 617.65
  L 755.49 613.99
  A 47.05 43.72 -0.0 0 0 708.44 570.27
  L 663.56 570.27
  A 0.35 0.35 0.0 0 0 663.21 570.62"
/>
<path stroke="#828283" vector-effect="non-scaling-stroke" d="
  M 516.5359 693.8255
  A 5.41 5.14 -10.7 0 0 510.2657 689.7794
  A 5.41 5.14 -10.7 0 0 505.9041 695.8345
  A 5.41 5.14 -10.7 0 0 512.1743 699.8806
  A 5.41 5.14 -10.7 0 0 516.5359 693.8255"
/>
<path stroke="#828283" vector-effect="non-scaling-stroke" d="
  M 379.80 713.02
  L 379.80 691.53
  A 0.62 0.62 0.0 0 0 379.18 690.91
  L 372.35 690.91
  A 0.47 0.47 0.0 0 0 371.88 691.38
  L 371.88 750.70
  A 0.26 0.26 0.0 0 0 372.14 750.96
  L 379.44 750.96
  A 0.33 0.33 0.0 0 0 379.77 750.63
  Q 379.72 734.36 379.70 733.25
  Q 379.60 727.67 380.35 724.36
  C 382.01 716.98 388.32 714.09 395.60 714.91
  C 401.66 715.58 404.71 720.52 404.74 726.28
  Q 404.80 738.19 404.73 750.53
  A 0.42 0.42 0.0 0 0 405.15 750.96
  L 412.25 750.96
  A 0.41 0.40 -89.3 0 0 412.65 750.56
  Q 412.79 732.62 412.64 724.85
  Q 412.39 712.12 401.64 708.70
  Q 389.58 704.85 380.25 713.21
  A 0.27 0.26 -21.3 0 1 379.80 713.02"
/>
<path stroke="#828283" vector-effect="non-scaling-stroke" d="
  M 325.61 733.75
  Q 336.32 733.97 341.98 733.65
  C 351.45 733.12 359.95 727.99 361.80 718.33
  C 364.74 702.91 353.76 694.35 339.49 694.34
  Q 332.47 694.34 317.07 694.18
  A 0.49 0.49 0.0 0 0 316.57 694.67
  L 316.57 750.68
  A 0.26 0.26 0.0 0 0 316.83 750.94
  L 324.63 750.94
  A 0.22 0.22 0.0 0 0 324.85 750.72
  L 324.85 734.49
  A 0.74 0.74 0.0 0 1 325.61 733.75"
/>
<path stroke="#828283" vector-effect="non-scaling-stroke" d="
  M 494.45 717.17
  L 497.18 712.09
  A 0.82 0.82 0.0 0 0 496.81 710.97
  Q 488.32 706.93 479.25 707.70
  C 473.74 708.16 467.84 710.13 465.32 714.97
  C 462.13 721.09 464.01 727.61 470.64 730.56
  Q 473.31 731.75 485.53 733.98
  C 487.33 734.31 490.43 735.62 490.88 737.91
  C 491.54 741.23 489.00 743.65 485.87 744.14
  Q 475.12 745.84 466.43 740.52
  A 0.64 0.63 -60.0 0 0 465.54 740.76
  L 462.77 745.93
  A 0.83 0.82 -61.7 0 0 463.10 747.04
  Q 474.78 753.55 488.14 750.56
  C 494.09 749.24 498.94 745.21 499.07 738.77
  C 499.27 727.79 487.09 727.15 477.34 725.25
  C 473.78 724.55 470.84 722.12 472.38 718.10
  C 473.18 716.02 476.30 714.90 478.38 714.65
  Q 487.02 713.58 493.42 717.46
  A 0.74 0.73 -60.3 0 0 494.45 717.17"
/>
<path stroke="#828283" vector-effect="non-scaling-stroke" d="
  M 569.1057 728.0791
  A 22.47 22.09 -3.6 0 0 545.2930 707.4436
  A 22.47 22.09 -3.6 0 0 524.2543 730.9009
  A 22.47 22.09 -3.6 0 0 548.0670 751.5364
  A 22.47 22.09 -3.6 0 0 569.1057 728.0791"
/>
<path stroke="#828283" vector-effect="non-scaling-stroke" d="
  M 440.10 741.09
  L 425.37 708.15
  A 0.32 0.29 -11.8 0 0 425.09 707.98
  L 417.40 707.98
  A 0.21 0.21 0.0 0 0 417.21 708.27
  L 435.81 749.83
  A 2.05 2.03 44.6 0 1 435.83 751.45
  Q 434.31 755.05 432.78 757.29
  C 429.66 761.83 422.84 760.81 419.34 757.40
  A 0.39 0.39 0.0 0 0 418.74 757.48
  L 415.60 762.92
  A 0.48 0.47 -58.4 0 0 415.74 763.54
  C 424.41 769.46 435.75 768.30 440.58 758.08
  Q 441.32 756.51 462.58 708.23
  A 0.11 0.11 0.0 0 0 462.48 708.08
  L 455.17 708.08
  A 0.36 0.35 11.0 0 0 454.84 708.29
  L 440.63 741.09
  A 0.29 0.29 0.0 0 1 440.10 741.09"
/>
<path stroke="#828283" vector-effect="non-scaling-stroke" d="
  M 515.1330 708.3731
  A 0.27 0.27 0.0 0 0 514.8626 708.1035
  L 507.4026 708.1165
  A 0.27 0.27 0.0 0 0 507.1330 708.3870
  L 507.2070 750.7469
  A 0.27 0.27 0.0 0 0 507.4774 751.0165
  L 514.9374 751.0035
  A 0.27 0.27 0.0 0 0 515.2070 750.7330
  L 515.1330 708.3731"
/>
<path stroke="#828283" vector-effect="non-scaling-stroke" d="
  M 252.67 587.99
  L 252.83 618.57
  A 0.30 0.30 0.0 0 0 253.13 618.86
  L 273.63 618.76
  A 16.00 14.72 -0.3 0 0 289.55 603.95
  L 289.55 602.21
  A 16.00 14.72 -0.3 0 0 273.47 587.58
  L 252.97 587.68
  A 0.30 0.30 0.0 0 0 252.67 587.99"
/>
<path stroke="#828283" vector-effect="non-scaling-stroke" d="
  M 494.08 625.36
  A 0.35 0.35 0.0 0 0 494.40 625.85
  L 522.22 625.89
  A 0.35 0.35 0.0 0 0 522.54 625.41
  L 508.69 592.23
  A 0.35 0.35 0.0 0 0 508.05 592.23
  L 494.08 625.36"
/>
<path stroke="#828283" vector-effect="non-scaling-stroke" d="
  M 589.68 587.95
  L 589.62 618.41
  A 0.30 0.30 0.0 0 0 589.92 618.71
  L 610.00 618.74
  A 16.18 14.61 0.1 0 0 626.21 604.16
  L 626.21 602.32
  A 16.18 14.61 0.1 0 0 610.06 587.68
  L 589.98 587.65
  A 0.30 0.30 0.0 0 0 589.68 587.95"
/>
<path stroke="#828283" vector-effect="non-scaling-stroke" d="
  M 684.60 588.18
  L 684.50 643.34
  A 0.36 0.36 0.0 0 0 684.86 643.70
  L 706.55 643.74
  A 27.17 26.28 0.1 0 0 733.77 617.50
  L 733.77 614.18
  A 27.17 26.28 0.1 0 0 706.65 587.86
  L 684.96 587.82
  A 0.36 0.36 0.0 0 0 684.60 588.18"
/>
<path stroke="#828283" vector-effect="non-scaling-stroke" d="
  M 324.85 701.93
  L 324.85 725.99
  A 0.42 0.42 0.0 0 0 325.27 726.41
  L 341.18 726.41
  A 12.77 11.54 -0.0 0 0 353.95 714.87
  L 353.95 713.05
  A 12.77 11.54 0.0 0 0 341.18 701.51
  L 325.27 701.51
  A 0.42 0.42 0.0 0 0 324.85 701.93"
/>
<path stroke="#828283" vector-effect="non-scaling-stroke" d="
  M 546.6238 714.4500
  A 15.04 14.41 -90.1 0 0 532.2400 729.5152
  A 15.04 14.41 -90.1 0 0 546.6762 744.5300
  A 15.04 14.41 -90.1 0 0 561.0600 729.4648
  A 15.04 14.41 -90.1 0 0 546.6238 714.4500"
/>
</g>
<path fill="#f2f2f2" d="
  M 880.00 0.00
  L 880.00 1168.00
  L 0.00 1168.00
  L 0.00 0.00
  L 880.00 0.00
  Z
  M 751.60 543.53
  A 0.24 0.22 27.2 0 0 751.49 543.23
  L 631.32 478.83
  A 0.80 0.76 -43.0 0 0 630.62 478.82
  L 602.87 492.25
  A 0.86 0.85 -36.5 0 1 601.91 492.11
  L 549.75 444.16
  A 0.53 0.53 0.0 0 0 549.08 444.13
  L 532.79 456.15
  A 0.53 0.52 50.6 0 1 532.09 456.08
  L 523.09 446.23
  A 0.43 0.42 55.5 0 0 522.58 446.13
  L 498.95 457.56
  A 0.42 0.42 0.0 0 1 498.47 457.48
  L 442.84 402.64
  A 0.77 0.77 0.0 0 0 441.78 402.62
  L 375.10 463.50
  A 0.55 0.55 0.0 0 1 374.40 463.52
  L 345.11 440.81
  A 0.57 0.57 0.0 0 0 344.40 440.82
  L 288.09 487.33
  A 0.66 0.65 -56.0 0 1 287.49 487.45
  L 254.06 477.81
  A 1.36 1.36 0.0 0 0 253.08 477.91
  Q 184.96 513.73 134.88 540.89
  Q 133.48 541.65 131.47 543.03
  A 0.03 0.03 0.0 0 0 131.49 543.08
  Q 171.88 527.86 181.22 524.14
  Q 183.84 523.09 185.60 522.12
  Q 216.47 505.04 251.93 486.35
  A 0.43 0.43 0.0 0 1 252.56 486.71
  L 253.09 500.95
  A 1.70 1.65 54.4 0 1 253.00 501.55
  L 241.95 533.78
  A 0.26 0.26 0.0 0 0 242.36 534.06
  L 343.81 450.27
  A 0.32 0.32 0.0 0 1 344.33 450.56
  L 340.22 480.86
  A 2.05 2.05 0.0 0 0 341.02 482.77
  L 352.50 491.31
  A 0.29 0.29 0.0 0 1 352.48 491.79
  L 329.50 506.36
  A 0.45 0.45 0.0 0 0 329.59 507.17
  L 425.67 541.08
  A 0.12 0.12 0.0 0 0 425.81 540.90
  L 375.79 473.13
  A 0.64 0.63 -39.4 0 1 375.88 472.28
  L 440.84 412.98
  A 0.59 0.59 0.0 0 1 441.83 413.41
  L 441.83 447.19
  A 1.62 1.58 -27.7 0 1 441.53 448.12
  L 431.79 462.13
  A 0.32 0.32 0.0 0 0 431.94 462.61
  L 456.34 471.22
  A 0.49 0.49 0.0 0 1 456.55 472.00
  L 436.64 495.73
  A 0.36 0.35 -54.3 0 0 436.72 496.25
  L 454.28 507.30
  A 0.62 0.61 -66.4 0 1 454.54 507.98
  L 449.24 526.35
  A 0.19 0.19 0.0 0 0 449.52 526.56
  L 497.78 497.77
  A 0.21 0.20 -54.6 0 0 497.72 497.39
  L 479.39 494.11
  A 0.14 0.14 0.0 0 1 479.35 493.84
  Q 489.03 489.24 516.14 476.04
  Q 521.48 473.43 525.53 470.34
  Q 532.78 464.79 548.20 453.53
  A 0.57 0.57 0.0 0 1 549.11 453.93
  L 550.88 468.62
  A 0.81 0.79 -23.4 0 1 550.59 469.33
  L 539.82 478.23
  A 0.36 0.35 40.5 0 0 539.87 478.81
  L 555.48 487.82
  A 0.15 0.15 0.0 0 1 555.49 488.07
  L 532.16 505.29
  A 2.82 2.82 0.0 0 0 531.02 507.25
  L 527.79 535.39
  A 0.52 0.52 0.0 0 0 528.54 535.92
  L 630.00 486.81
  A 0.54 0.53 73.8 0 1 630.76 487.23
  L 632.40 500.93
  A 1.52 1.51 -27.4 0 1 632.02 502.12
  L 619.88 515.32
  A 0.39 0.39 0.0 0 0 620.07 515.96
  L 707.85 539.18
  A 0.29 0.29 0.0 0 0 708.09 538.67
  L 682.30 519.47
  A 0.17 0.17 0.0 0 1 682.46 519.18
  Q 751.69 543.74 751.53 543.78
  A 0.03 0.03 0.0 0 1 751.50 543.74
  L 751.60 543.53
  Z
  M 431.75 661.49
  A 0.34 0.34 0.0 0 0 432.08 661.26
  L 461.63 570.69
  A 0.34 0.34 0.0 0 0 461.31 570.24
  L 441.52 570.24
  A 0.34 0.34 0.0 0 0 441.19 570.47
  L 420.51 633.85
  A 0.34 0.34 0.0 0 1 419.86 633.85
  L 399.96 570.48
  A 0.34 0.34 0.0 0 0 399.64 570.24
  L 379.72 570.24
  A 0.34 0.34 0.0 0 0 379.39 570.47
  L 358.80 633.55
  A 0.34 0.34 0.0 0 1 358.15 633.55
  L 338.34 570.48
  A 0.34 0.34 0.0 0 0 338.02 570.24
  L 316.57 570.24
  A 0.34 0.34 0.0 0 0 316.24 570.68
  L 345.53 661.26
  A 0.34 0.34 0.0 0 0 345.86 661.50
  L 368.61 661.50
  A 0.34 0.34 0.0 0 0 368.94 661.27
  L 388.71 600.72
  A 0.34 0.34 0.0 0 1 389.35 600.73
  L 408.92 661.25
  A 0.34 0.34 0.0 0 0 409.25 661.49
  L 431.75 661.49
  Z
  M 170.52 663.09
  C 196.49 663.11 211.94 647.78 211.99 622.00
  Q 212.03 599.32 212.02 570.69
  A 0.40 0.40 0.0 0 0 211.62 570.29
  L 190.99 570.29
  A 0.29 0.29 0.0 0 0 190.70 570.58
  Q 190.74 584.96 190.75 622.50
  C 190.75 635.49 184.46 644.71 170.54 644.70
  C 156.61 644.69 150.33 635.45 150.36 622.46
  Q 150.44 584.93 150.50 570.55
  A 0.29 0.29 0.0 0 0 150.21 570.25
  L 129.58 570.22
  A 0.40 0.40 0.0 0 0 129.18 570.62
  Q 129.12 599.25 129.12 621.93
  C 129.13 647.71 144.56 663.07 170.52 663.09
  Z
  M 231.86 661.44
  L 252.47 661.44
  A 0.27 0.27 0.0 0 0 252.74 661.17
  L 252.74 636.56
  A 0.35 0.35 0.0 0 1 253.10 636.21
  Q 264.78 636.60 276.01 636.16
  C 298.90 635.26 315.35 618.26 310.09 594.83
  C 306.55 579.09 291.25 571.03 275.97 570.52
  Q 262.03 570.05 232.10 570.30
  A 0.51 0.51 0.0 0 0 231.59 570.81
  L 231.59 661.18
  A 0.27 0.26 -0.0 0 0 231.86 661.44
  Z
  M 508.41 642.16
  Q 519.04 642.18 529.23 642.21
  A 0.53 0.53 0.0 0 1 529.72 642.53
  L 538.14 661.34
  A 0.35 0.35 0.0 0 0 538.46 661.55
  L 559.44 661.55
  A 0.40 0.40 0.0 0 0 559.80 660.99
  L 519.44 570.80
  A 0.82 0.81 -11.5 0 0 518.69 570.31
  Q 513.57 570.31 508.54 570.30
  Q 503.51 570.29 498.39 570.27
  A 0.82 0.81 11.7 0 0 497.64 570.76
  L 456.95 660.80
  A 0.40 0.40 0.0 0 0 457.31 661.36
  L 478.29 661.44
  A 0.35 0.35 0.0 0 0 478.61 661.23
  L 487.10 642.45
  A 0.53 0.53 0.0 0 1 487.59 642.14
  Q 497.78 642.14 508.41 642.16
  Z
  M 649.50 661.19
  Q 649.50 660.97 649.38 660.80
  Q 640.33 648.56 629.35 632.20
  A 0.13 0.13 0.0 0 1 629.40 632.02
  Q 642.68 625.72 646.43 612.82
  C 649.96 600.66 647.08 587.62 637.03 579.15
  C 630.34 573.51 619.99 570.45 611.73 570.35
  Q 599.73 570.19 568.60 570.27
  A 0.26 0.26 0.0 0 0 568.34 570.53
  L 568.34 661.00
  A 0.48 0.47 -90.0 0 0 568.81 661.48
  L 589.28 661.48
  A 0.32 0.32 0.0 0 0 589.60 661.16
  L 589.60 636.16
  A 0.28 0.27 -0.0 0 1 589.88 635.89
  L 608.38 635.89
  A 1.10 1.07 -16.7 0 1 609.28 636.36
  L 626.03 660.93
  A 1.34 1.33 72.6 0 0 627.13 661.51
  L 649.17 661.51
  A 0.33 0.33 0.0 0 0 649.50 661.19
  Z
  M 663.21 570.62
  L 663.21 661.02
  A 0.35 0.35 0.0 0 0 663.56 661.37
  L 708.44 661.37
  A 47.05 43.72 0.0 0 0 755.49 617.65
  L 755.49 613.99
  A 47.05 43.72 -0.0 0 0 708.44 570.27
  L 663.56 570.27
  A 0.35 0.35 0.0 0 0 663.21 570.62
  Z
  M 516.5359 693.8255
  A 5.41 5.14 -10.7 0 0 510.2657 689.7794
  A 5.41 5.14 -10.7 0 0 505.9041 695.8345
  A 5.41 5.14 -10.7 0 0 512.1743 699.8806
  A 5.41 5.14 -10.7 0 0 516.5359 693.8255
  Z
  M 379.80 713.02
  L 379.80 691.53
  A 0.62 0.62 0.0 0 0 379.18 690.91
  L 372.35 690.91
  A 0.47 0.47 0.0 0 0 371.88 691.38
  L 371.88 750.70
  A 0.26 0.26 0.0 0 0 372.14 750.96
  L 379.44 750.96
  A 0.33 0.33 0.0 0 0 379.77 750.63
  Q 379.72 734.36 379.70 733.25
  Q 379.60 727.67 380.35 724.36
  C 382.01 716.98 388.32 714.09 395.60 714.91
  C 401.66 715.58 404.71 720.52 404.74 726.28
  Q 404.80 738.19 404.73 750.53
  A 0.42 0.42 0.0 0 0 405.15 750.96
  L 412.25 750.96
  A 0.41 0.40 -89.3 0 0 412.65 750.56
  Q 412.79 732.62 412.64 724.85
  Q 412.39 712.12 401.64 708.70
  Q 389.58 704.85 380.25 713.21
  A 0.27 0.26 -21.3 0 1 379.80 713.02
  Z
  M 325.61 733.75
  Q 336.32 733.97 341.98 733.65
  C 351.45 733.12 359.95 727.99 361.80 718.33
  C 364.74 702.91 353.76 694.35 339.49 694.34
  Q 332.47 694.34 317.07 694.18
  A 0.49 0.49 0.0 0 0 316.57 694.67
  L 316.57 750.68
  A 0.26 0.26 0.0 0 0 316.83 750.94
  L 324.63 750.94
  A 0.22 0.22 0.0 0 0 324.85 750.72
  L 324.85 734.49
  A 0.74 0.74 0.0 0 1 325.61 733.75
  Z
  M 494.45 717.17
  L 497.18 712.09
  A 0.82 0.82 0.0 0 0 496.81 710.97
  Q 488.32 706.93 479.25 707.70
  C 473.74 708.16 467.84 710.13 465.32 714.97
  C 462.13 721.09 464.01 727.61 470.64 730.56
  Q 473.31 731.75 485.53 733.98
  C 487.33 734.31 490.43 735.62 490.88 737.91
  C 491.54 741.23 489.00 743.65 485.87 744.14
  Q 475.12 745.84 466.43 740.52
  A 0.64 0.63 -60.0 0 0 465.54 740.76
  L 462.77 745.93
  A 0.83 0.82 -61.7 0 0 463.10 747.04
  Q 474.78 753.55 488.14 750.56
  C 494.09 749.24 498.94 745.21 499.07 738.77
  C 499.27 727.79 487.09 727.15 477.34 725.25
  C 473.78 724.55 470.84 722.12 472.38 718.10
  C 473.18 716.02 476.30 714.90 478.38 714.65
  Q 487.02 713.58 493.42 717.46
  A 0.74 0.73 -60.3 0 0 494.45 717.17
  Z
  M 569.1057 728.0791
  A 22.47 22.09 -3.6 0 0 545.2930 707.4436
  A 22.47 22.09 -3.6 0 0 524.2543 730.9009
  A 22.47 22.09 -3.6 0 0 548.0670 751.5364
  A 22.47 22.09 -3.6 0 0 569.1057 728.0791
  Z
  M 440.10 741.09
  L 425.37 708.15
  A 0.32 0.29 -11.8 0 0 425.09 707.98
  L 417.40 707.98
  A 0.21 0.21 0.0 0 0 417.21 708.27
  L 435.81 749.83
  A 2.05 2.03 44.6 0 1 435.83 751.45
  Q 434.31 755.05 432.78 757.29
  C 429.66 761.83 422.84 760.81 419.34 757.40
  A 0.39 0.39 0.0 0 0 418.74 757.48
  L 415.60 762.92
  A 0.48 0.47 -58.4 0 0 415.74 763.54
  C 424.41 769.46 435.75 768.30 440.58 758.08
  Q 441.32 756.51 462.58 708.23
  A 0.11 0.11 0.0 0 0 462.48 708.08
  L 455.17 708.08
  A 0.36 0.35 11.0 0 0 454.84 708.29
  L 440.63 741.09
  A 0.29 0.29 0.0 0 1 440.10 741.09
  Z
  M 515.1330 708.3731
  A 0.27 0.27 0.0 0 0 514.8626 708.1035
  L 507.4026 708.1165
  A 0.27 0.27 0.0 0 0 507.1330 708.3870
  L 507.2070 750.7469
  A 0.27 0.27 0.0 0 0 507.4774 751.0165
  L 514.9374 751.0035
  A 0.27 0.27 0.0 0 0 515.2070 750.7330
  L 515.1330 708.3731
  Z"
/>
<path fill="#111214" d="
  M 751.53 543.78
  Q 751.69 543.74 682.46 519.18
  A 0.17 0.17 0.0 0 0 682.30 519.47
  L 708.09 538.67
  A 0.29 0.29 0.0 0 1 707.85 539.18
  L 620.07 515.96
  A 0.39 0.39 0.0 0 1 619.88 515.32
  L 632.02 502.12
  A 1.52 1.51 -27.4 0 0 632.40 500.93
  L 630.76 487.23
  A 0.54 0.53 73.8 0 0 630.00 486.81
  L 528.54 535.92
  A 0.52 0.52 0.0 0 1 527.79 535.39
  L 531.02 507.25
  A 2.82 2.82 0.0 0 1 532.16 505.29
  L 555.49 488.07
  A 0.15 0.15 0.0 0 0 555.48 487.82
  L 539.87 478.81
  A 0.36 0.35 40.5 0 1 539.82 478.23
  L 550.59 469.33
  A 0.81 0.79 -23.4 0 0 550.88 468.62
  L 549.11 453.93
  A 0.57 0.57 0.0 0 0 548.20 453.53
  Q 532.78 464.79 525.53 470.34
  Q 521.48 473.43 516.14 476.04
  Q 489.03 489.24 479.35 493.84
  A 0.14 0.14 0.0 0 0 479.39 494.11
  L 497.72 497.39
  A 0.21 0.20 -54.6 0 1 497.78 497.77
  L 449.52 526.56
  A 0.19 0.19 0.0 0 1 449.24 526.35
  L 454.54 507.98
  A 0.62 0.61 -66.4 0 0 454.28 507.30
  L 436.72 496.25
  A 0.36 0.35 -54.3 0 1 436.64 495.73
  L 456.55 472.00
  A 0.49 0.49 0.0 0 0 456.34 471.22
  L 431.94 462.61
  A 0.32 0.32 0.0 0 1 431.79 462.13
  L 441.53 448.12
  A 1.62 1.58 -27.7 0 0 441.83 447.19
  L 441.83 413.41
  A 0.59 0.59 0.0 0 0 440.84 412.98
  L 375.88 472.28
  A 0.64 0.63 -39.4 0 0 375.79 473.13
  L 425.81 540.90
  A 0.12 0.12 0.0 0 1 425.67 541.08
  L 329.59 507.17
  A 0.45 0.45 0.0 0 1 329.50 506.36
  L 352.48 491.79
  A 0.29 0.29 0.0 0 0 352.50 491.31
  L 341.02 482.77
  A 2.05 2.05 0.0 0 1 340.22 480.86
  L 344.33 450.56
  A 0.32 0.32 0.0 0 0 343.81 450.27
  L 242.36 534.06
  A 0.26 0.26 0.0 0 1 241.95 533.78
  L 253.00 501.55
  A 1.70 1.65 54.4 0 0 253.09 500.95
  L 252.56 486.71
  A 0.43 0.43 0.0 0 0 251.93 486.35
  Q 216.47 505.04 185.60 522.12
  Q 183.84 523.09 181.22 524.14
  Q 171.88 527.86 131.49 543.08
  A 0.03 0.03 0.0 0 1 131.47 543.03
  Q 133.48 541.65 134.88 540.89
  Q 184.96 513.73 253.08 477.91
  A 1.36 1.36 0.0 0 1 254.06 477.81
  L 287.49 487.45
  A 0.66 0.65 -56.0 0 0 288.09 487.33
  L 344.40 440.82
  A 0.57 0.57 0.0 0 1 345.11 440.81
  L 374.40 463.52
  A 0.55 0.55 0.0 0 0 375.10 463.50
  L 441.78 402.62
  A 0.77 0.77 0.0 0 1 442.84 402.64
  L 498.47 457.48
  A 0.42 0.42 0.0 0 0 498.95 457.56
  L 522.58 446.13
  A 0.43 0.42 55.5 0 1 523.09 446.23
  L 532.09 456.08
  A 0.53 0.52 50.6 0 0 532.79 456.15
  L 549.08 444.13
  A 0.53 0.53 0.0 0 1 549.75 444.16
  L 601.91 492.11
  A 0.86 0.85 -36.5 0 0 602.87 492.25
  L 630.62 478.82
  A 0.80 0.76 -43.0 0 1 631.32 478.83
  L 751.49 543.23
  A 0.24 0.22 27.2 0 1 751.60 543.53
  L 751.50 543.74
  A 0.03 0.03 0.0 0 0 751.53 543.78
  Z"
/>
<path fill="#111214" d="
  M 431.75 661.49
  L 409.25 661.49
  A 0.34 0.34 0.0 0 1 408.92 661.25
  L 389.35 600.73
  A 0.34 0.34 0.0 0 0 388.71 600.72
  L 368.94 661.27
  A 0.34 0.34 0.0 0 1 368.61 661.50
  L 345.86 661.50
  A 0.34 0.34 0.0 0 1 345.53 661.26
  L 316.24 570.68
  A 0.34 0.34 0.0 0 1 316.57 570.24
  L 338.02 570.24
  A 0.34 0.34 0.0 0 1 338.34 570.48
  L 358.15 633.55
  A 0.34 0.34 0.0 0 0 358.80 633.55
  L 379.39 570.47
  A 0.34 0.34 0.0 0 1 379.72 570.24
  L 399.64 570.24
  A 0.34 0.34 0.0 0 1 399.96 570.48
  L 419.86 633.85
  A 0.34 0.34 0.0 0 0 420.51 633.85
  L 441.19 570.47
  A 0.34 0.34 0.0 0 1 441.52 570.24
  L 461.31 570.24
  A 0.34 0.34 0.0 0 1 461.63 570.69
  L 432.08 661.26
  A 0.34 0.34 0.0 0 1 431.75 661.49
  Z"
/>
<path fill="#111214" d="
  M 170.54 644.70
  C 184.46 644.71 190.75 635.49 190.75 622.50
  Q 190.74 584.96 190.70 570.58
  A 0.29 0.29 0.0 0 1 190.99 570.29
  L 211.62 570.29
  A 0.40 0.40 0.0 0 1 212.02 570.69
  Q 212.03 599.32 211.99 622.00
  C 211.94 647.78 196.49 663.11 170.52 663.09
  C 144.56 663.07 129.13 647.71 129.12 621.93
  Q 129.12 599.25 129.18 570.62
  A 0.40 0.40 0.0 0 1 129.58 570.22
  L 150.21 570.25
  A 0.29 0.29 0.0 0 1 150.50 570.55
  Q 150.44 584.93 150.36 622.46
  C 150.33 635.45 156.61 644.69 170.54 644.70
  Z"
/>
<path fill="#111214" d="
  M 231.86 661.44
  A 0.27 0.26 -0.0 0 1 231.59 661.18
  L 231.59 570.81
  A 0.51 0.51 0.0 0 1 232.10 570.30
  Q 262.03 570.05 275.97 570.52
  C 291.25 571.03 306.55 579.09 310.09 594.83
  C 315.35 618.26 298.90 635.26 276.01 636.16
  Q 264.78 636.60 253.10 636.21
  A 0.35 0.35 0.0 0 0 252.74 636.56
  L 252.74 661.17
  A 0.27 0.27 0.0 0 1 252.47 661.44
  L 231.86 661.44
  Z
  M 252.67 587.99
  L 252.83 618.57
  A 0.30 0.30 0.0 0 0 253.13 618.86
  L 273.63 618.76
  A 16.00 14.72 -0.3 0 0 289.55 603.95
  L 289.55 602.21
  A 16.00 14.72 -0.3 0 0 273.47 587.58
  L 252.97 587.68
  A 0.30 0.30 0.0 0 0 252.67 587.99
  Z"
/>
<path fill="#111214" d="
  M 508.54 570.30
  Q 513.57 570.31 518.69 570.31
  A 0.82 0.81 -11.5 0 1 519.44 570.80
  L 559.80 660.99
  A 0.40 0.40 0.0 0 1 559.44 661.55
  L 538.46 661.55
  A 0.35 0.35 0.0 0 1 538.14 661.34
  L 529.72 642.53
  A 0.53 0.53 0.0 0 0 529.23 642.21
  Q 519.04 642.18 508.41 642.16
  Q 497.78 642.14 487.59 642.14
  A 0.53 0.53 0.0 0 0 487.10 642.45
  L 478.61 661.23
  A 0.35 0.35 0.0 0 1 478.29 661.44
  L 457.31 661.36
  A 0.40 0.40 0.0 0 1 456.95 660.80
  L 497.64 570.76
  A 0.82 0.81 11.7 0 1 498.39 570.27
  Q 503.51 570.29 508.54 570.30
  Z
  M 494.08 625.36
  A 0.35 0.35 0.0 0 0 494.40 625.85
  L 522.22 625.89
  A 0.35 0.35 0.0 0 0 522.54 625.41
  L 508.69 592.23
  A 0.35 0.35 0.0 0 0 508.05 592.23
  L 494.08 625.36
  Z"
/>
<path fill="#111214" d="
  M 649.50 661.19
  A 0.33 0.33 0.0 0 1 649.17 661.51
  L 627.13 661.51
  A 1.34 1.33 72.6 0 1 626.03 660.93
  L 609.28 636.36
  A 1.10 1.07 -16.7 0 0 608.38 635.89
  L 589.88 635.89
  A 0.28 0.27 0.0 0 0 589.60 636.16
  L 589.60 661.16
  A 0.32 0.32 0.0 0 1 589.28 661.48
  L 568.81 661.48
  A 0.48 0.47 90.0 0 1 568.34 661.00
  L 568.34 570.53
  A 0.26 0.26 0.0 0 1 568.60 570.27
  Q 599.73 570.19 611.73 570.35
  C 619.99 570.45 630.34 573.51 637.03 579.15
  C 647.08 587.62 649.96 600.66 646.43 612.82
  Q 642.68 625.72 629.40 632.02
  A 0.13 0.13 0.0 0 0 629.35 632.20
  Q 640.33 648.56 649.38 660.80
  Q 649.50 660.97 649.50 661.19
  Z
  M 589.68 587.95
  L 589.62 618.41
  A 0.30 0.30 0.0 0 0 589.92 618.71
  L 610.00 618.74
  A 16.18 14.61 0.1 0 0 626.21 604.16
  L 626.21 602.32
  A 16.18 14.61 0.1 0 0 610.06 587.68
  L 589.98 587.65
  A 0.30 0.30 0.0 0 0 589.68 587.95
  Z"
/>
<path fill="#111214" d="
  M 663.21 570.62
  A 0.35 0.35 0.0 0 1 663.56 570.27
  L 708.44 570.27
  A 47.05 43.72 -0.0 0 1 755.49 613.99
  L 755.49 617.65
  A 47.05 43.72 -0.0 0 1 708.44 661.37
  L 663.56 661.37
  A 0.35 0.35 0.0 0 1 663.21 661.02
  L 663.21 570.62
  Z
  M 684.60 588.18
  L 684.50 643.34
  A 0.36 0.36 0.0 0 0 684.86 643.70
  L 706.55 643.74
  A 27.17 26.28 0.1 0 0 733.77 617.50
  L 733.77 614.18
  A 27.17 26.28 0.1 0 0 706.65 587.86
  L 684.96 587.82
  A 0.36 0.36 0.0 0 0 684.60 588.18
  Z"
/>
<path fill="#f2f2f2" d="
  M 252.67 587.99
  A 0.30 0.30 0.0 0 1 252.97 587.68
  L 273.47 587.58
  A 16.00 14.72 -0.3 0 1 289.55 602.21
  L 289.55 603.95
  A 16.00 14.72 -0.3 0 1 273.63 618.76
  L 253.13 618.86
  A 0.30 0.30 0.0 0 1 252.83 618.57
  L 252.67 587.99
  Z"
/>
<path fill="#f2f2f2" d="
  M 589.68 587.95
  A 0.30 0.30 0.0 0 1 589.98 587.65
  L 610.06 587.68
  A 16.18 14.61 0.1 0 1 626.21 602.32
  L 626.21 604.16
  A 16.18 14.61 0.1 0 1 610.00 618.74
  L 589.92 618.71
  A 0.30 0.30 0.0 0 1 589.62 618.41
  L 589.68 587.95
  Z"
/>
<path fill="#f2f2f2" d="
  M 684.60 588.18
  A 0.36 0.36 0.0 0 1 684.96 587.82
  L 706.65 587.86
  A 27.17 26.28 0.1 0 1 733.77 614.18
  L 733.77 617.50
  A 27.17 26.28 0.1 0 1 706.55 643.74
  L 684.86 643.70
  A 0.36 0.36 0.0 0 1 684.50 643.34
  L 684.60 588.18
  Z"
/>
<path fill="#f2f2f2" d="
  M 494.08 625.36
  L 508.05 592.23
  A 0.35 0.35 0.0 0 1 508.69 592.23
  L 522.54 625.41
  A 0.35 0.35 0.0 0 1 522.22 625.89
  L 494.40 625.85
  A 0.35 0.35 0.0 0 1 494.08 625.36
  Z"
/>
<ellipse fill="#111214" cx="0.00" cy="0.00" transform="translate(511.22,694.83) rotate(-10.7)" rx="5.41" ry="5.14"/>
<path fill="#111214" d="
  M 380.25 713.21
  Q 389.58 704.85 401.64 708.70
  Q 412.39 712.12 412.64 724.85
  Q 412.79 732.62 412.65 750.56
  A 0.41 0.40 -89.3 0 1 412.25 750.96
  L 405.15 750.96
  A 0.42 0.42 0.0 0 1 404.73 750.53
  Q 404.80 738.19 404.74 726.28
  C 404.71 720.52 401.66 715.58 395.60 714.91
  C 388.32 714.09 382.01 716.98 380.35 724.36
  Q 379.60 727.67 379.70 733.25
  Q 379.72 734.36 379.77 750.63
  A 0.33 0.33 0.0 0 1 379.44 750.96
  L 372.14 750.96
  A 0.26 0.26 0.0 0 1 371.88 750.70
  L 371.88 691.38
  A 0.47 0.47 0.0 0 1 372.35 690.91
  L 379.18 690.91
  A 0.62 0.62 0.0 0 1 379.80 691.53
  L 379.80 713.02
  A 0.27 0.26 -21.3 0 0 380.25 713.21
  Z"
/>
<path fill="#111214" d="
  M 324.85 734.49
  L 324.85 750.72
  A 0.22 0.22 0.0 0 1 324.63 750.94
  L 316.83 750.94
  A 0.26 0.26 0.0 0 1 316.57 750.68
  L 316.57 694.67
  A 0.49 0.49 0.0 0 1 317.07 694.18
  Q 332.47 694.34 339.49 694.34
  C 353.76 694.35 364.74 702.91 361.80 718.33
  C 359.95 727.99 351.45 733.12 341.98 733.65
  Q 336.32 733.97 325.61 733.75
  A 0.74 0.74 0.0 0 0 324.85 734.49
  Z
  M 324.85 701.93
  L 324.85 725.99
  A 0.42 0.42 0.0 0 0 325.27 726.41
  L 341.18 726.41
  A 12.77 11.54 -0.0 0 0 353.95 714.87
  L 353.95 713.05
  A 12.77 11.54 0.0 0 0 341.18 701.51
  L 325.27 701.51
  A 0.42 0.42 0.0 0 0 324.85 701.93
  Z"
/>
<path fill="#f2f2f2" d="
  M 324.85 701.93
  A 0.42 0.42 0.0 0 1 325.27 701.51
  L 341.18 701.51
  A 12.77 11.54 0.0 0 1 353.95 713.05
  L 353.95 714.87
  A 12.77 11.54 0.0 0 1 341.18 726.41
  L 325.27 726.41
  A 0.42 0.42 0.0 0 1 324.85 725.99
  L 324.85 701.93
  Z"
/>
<path fill="#111214" d="
  M 493.42 717.46
  Q 487.02 713.58 478.38 714.65
  C 476.30 714.90 473.18 716.02 472.38 718.10
  C 470.84 722.12 473.78 724.55 477.34 725.25
  C 487.09 727.15 499.27 727.79 499.07 738.77
  C 498.94 745.21 494.09 749.24 488.14 750.56
  Q 474.78 753.55 463.10 747.04
  A 0.83 0.82 -61.7 0 1 462.77 745.93
  L 465.54 740.76
  A 0.64 0.63 -60.0 0 1 466.43 740.52
  Q 475.12 745.84 485.87 744.14
  C 489.00 743.65 491.54 741.23 490.88 737.91
  C 490.43 735.62 487.33 734.31 485.53 733.98
  Q 473.31 731.75 470.64 730.56
  C 464.01 727.61 462.13 721.09 465.32 714.97
  C 467.84 710.13 473.74 708.16 479.25 707.70
  Q 488.32 706.93 496.81 710.97
  A 0.82 0.82 0.0 0 1 497.18 712.09
  L 494.45 717.17
  A 0.74 0.73 -60.3 0 1 493.42 717.46
  Z"
/>
<path fill="#111214" d="
  M 569.1057 728.0791
  A 22.47 22.09 -3.6 0 1 548.0670 751.5364
  A 22.47 22.09 -3.6 0 1 524.2543 730.9009
  A 22.47 22.09 -3.6 0 1 545.2930 707.4436
  A 22.47 22.09 -3.6 0 1 569.1057 728.0791
  Z
  M 546.6238 714.4500
  A 15.04 14.41 -90.1 0 0 532.2400 729.5152
  A 15.04 14.41 -90.1 0 0 546.6762 744.5300
  A 15.04 14.41 -90.1 0 0 561.0600 729.4648
  A 15.04 14.41 -90.1 0 0 546.6238 714.4500
  Z"
/>
<path fill="#111214" d="
  M 440.10 741.09
  A 0.29 0.29 0.0 0 0 440.63 741.09
  L 454.84 708.29
  A 0.36 0.35 11.0 0 1 455.17 708.08
  L 462.48 708.08
  A 0.11 0.11 0.0 0 1 462.58 708.23
  Q 441.32 756.51 440.58 758.08
  C 435.75 768.30 424.41 769.46 415.74 763.54
  A 0.48 0.47 -58.4 0 1 415.60 762.92
  L 418.74 757.48
  A 0.39 0.39 0.0 0 1 419.34 757.40
  C 422.84 760.81 429.66 761.83 432.78 757.29
  Q 434.31 755.05 435.83 751.45
  A 2.05 2.03 44.6 0 0 435.81 749.83
  L 417.21 708.27
  A 0.21 0.21 0.0 0 1 417.40 707.98
  L 425.09 707.98
  A 0.32 0.29 -11.8 0 1 425.37 708.15
  L 440.10 741.09
  Z"
/>
<rect fill="#111214" x="-4.00" y="-21.45" transform="translate(511.17,729.56) rotate(-0.1)" width="8.00" height="42.90" rx="0.27"/>
<ellipse fill="#f2f2f2" cx="0.00" cy="0.00" transform="translate(546.65,729.49) rotate(-90.1)" rx="15.04" ry="14.41"/>
</svg>
