<?xml version="1.0" encoding="UTF-8" standalone="no"?>
<!DOCTYPE svg PUBLIC "-//W3C//DTD SVG 1.1//EN" "http://www.w3.org/Graphics/SVG/1.1/DTD/svg11.dtd">
<svg xmlns="http://www.w3.org/2000/svg" version="1.1" viewBox="0.00 0.00 703.00 521.00">
<g stroke-width="2.00" fill="none" stroke-linecap="butt">
<path stroke="#143646" vector-effect="non-scaling-stroke" d="
  M 0.00 404.23
  Q 2.48 420.81 17.07 421.90
  C 26.40 422.60 33.23 417.53 35.94 408.71
  Q 36.88 405.64 36.88 399.20
  Q 36.86 333.52 36.89 327.28
  A 0.45 0.44 0.0 0 0 36.44 326.84
  L 23.40 326.90
  A 0.62 0.61 89.5 0 0 22.80 327.52
  L 23.18 403.79
  A 4.49 4.49 0.0 0 1 18.75 408.30
  L 18.31 408.31
  A 4.37 4.36 89.6 0 1 13.89 403.94
  L 13.87 327.26
  A 0.28 0.28 0.0 0 0 13.58 326.98
  L 0.00 327.05"
/>
<path stroke="#143646" vector-effect="non-scaling-stroke" d="
  M 407.90 82.96
  Q 410.86 86.29 415.34 87.91
  A 0.52 0.51 4.3 0 0 416.02 87.33
  Q 414.57 80.02 412.04 74.58
  C 410.39 71.03 407.05 67.48 404.59 64.24
  A 14.81 14.60 18.0 0 1 402.25 59.72
  Q 400.12 52.94 398.90 49.35
  C 398.21 47.28 397.53 46.01 398.26 43.75
  Q 398.55 42.85 401.10 37.83
  A 2.15 2.12 -43.9 0 0 401.15 35.98
  L 399.19 31.59
  A 1.41 1.41 0.0 0 0 398.07 30.75
  L 394.13 30.22
  A 0.04 0.04 0.0 0 1 394.09 30.19
  L 394.07 29.93
  A 0.24 0.23 -8.0 0 1 394.27 29.68
  Q 399.64 28.82 400.82 33.46
  A 0.69 0.69 0.0 0 0 401.94 33.81
  L 411.87 25.29
  A 2.09 2.09 0.0 0 0 412.14 22.41
  L 408.82 18.21
  A 2.06 2.06 0.0 0 0 405.86 17.92
  L 396.01 26.38
  A 1.06 1.06 0.0 0 1 394.53 26.29
  Q 392.54 24.07 391.18 25.36
  C 390.58 25.94 390.68 26.66 390.53 27.34
  A 0.64 0.64 0.0 0 1 389.55 27.73
  L 388.93 27.32
  A 1.56 1.56 0.0 0 0 386.65 29.25
  L 387.05 30.14
  A 0.35 0.34 4.1 0 1 386.55 30.57
  Q 385.11 29.67 384.09 30.66
  A 1.16 1.15 68.6 0 0 383.73 31.50
  L 383.74 32.97
  A 0.50 0.50 0.0 0 1 383.24 33.47
  Q 381.78 33.46 381.43 34.52
  Q 381.28 35.00 381.45 35.39
  Q 381.52 35.54 381.75 36.18
  A 0.61 0.60 -31.3 0 1 381.58 36.85
  L 357.06 57.91
  A 1.19 1.19 0.0 0 1 355.36 57.75
  Q 346.95 47.22 339.50 38.77
  Q 338.33 37.44 336.78 37.17
  A 1.54 1.52 36.0 0 0 335.85 37.31
  Q 332.43 39.05 330.91 42.83
  A 2.24 1.84 -74.6 0 1 328.89 44.26
  C 326.93 44.05 323.59 47.62 321.95 49.33
  A 2.64 2.63 -35.3 0 0 321.45 52.22
  Q 322.30 54.15 324.33 56.67
  Q 330.23 63.99 336.11 70.94
  A 0.75 0.74 49.4 0 1 336.03 71.98
  L 333.23 74.38
  A 0.91 0.90 -39.6 0 0 333.11 75.63
  L 334.97 77.99
  A 0.55 0.55 0.0 0 1 334.90 78.74
  L 221.06 176.55
  A 0.99 0.99 0.0 0 1 219.83 176.59
  C 216.76 174.28 215.28 175.52 212.66 177.78
  Q 210.37 179.75 209.92 182.83
  A 2.83 2.82 73.8 0 1 208.97 184.57
  L 194.96 196.61
  A 0.96 0.94 -61.2 0 1 194.23 196.83
  L 190.45 196.41
  A 0.40 0.40 0.0 0 1 190.18 195.77
  Q 191.85 193.62 190.29 192.24
  Q 189.24 191.30 188.17 190.44
  A 1.23 1.23 0.0 0 0 186.61 190.44
  Q 176.43 198.84 165.58 208.93
  C 163.61 210.76 165.86 212.92 167.74 213.61
  A 1.18 1.18 0.0 0 0 168.88 213.43
  L 171.20 211.60
  A 1.27 1.26 49.8 0 1 172.93 211.75
  L 173.14 211.99
  A 1.28 1.27 48.3 0 1 173.04 213.80
  L 143.73 239.92
  A 0.93 0.91 36.1 0 1 142.72 240.07
  Q 141.65 239.58 140.91 238.03
  A 1.06 1.06 0.0 0 0 139.17 237.78
  Q 138.24 238.82 135.32 240.62
  A 5.44 5.32 -81.6 0 0 134.36 241.35
  L 131.17 244.32
  A 0.87 0.86 46.1 0 0 131.15 245.57
  L 145.82 260.24
  A 0.99 0.99 0.0 0 1 145.73 261.72
  L 144.72 262.53
  A 1.23 1.23 0.0 0 1 143.09 262.43
  Q 138.64 257.93 133.66 252.89
  Q 131.81 251.01 130.43 251.02
  Q 127.11 251.07 123.97 250.88
  A 1.10 1.10 0.0 0 1 123.03 249.35
  Q 123.24 248.88 124.22 247.97
  Q 131.26 241.38 134.91 237.33
  A 1.75 1.49 -46.5 0 0 135.03 235.11
  Q 134.61 234.68 133.27 234.48
  C 129.28 233.90 128.11 236.20 127.18 239.43
  A 4.36 4.31 75.8 0 1 126.08 241.30
  L 118.46 248.92
  A 1.26 1.25 45.2 0 0 118.46 250.69
  L 124.83 257.06
  A 0.49 0.49 0.0 0 1 124.79 257.79
  L 121.68 260.25
  A 1.15 1.14 -38.4 0 0 121.49 261.85
  L 121.93 262.41
  A 0.67 0.66 -38.7 0 1 121.82 263.35
  L 117.75 266.56
  A 1.57 1.55 -58.7 0 1 116.52 266.87
  Q 111.57 265.95 108.89 270.73
  C 107.76 272.74 107.85 275.14 108.11 277.48
  A 0.63 0.63 0.0 0 1 106.92 277.82
  Q 106.00 275.87 106.33 273.54
  Q 107.44 265.65 114.29 265.14
  Q 116.97 264.94 117.96 264.17
  Q 119.88 262.67 119.20 260.71
  Q 119.12 260.48 119.50 260.01
  Q 119.86 259.57 119.91 259.32
  A 0.37 0.37 0.0 0 0 119.55 258.88
  Q 82.91 258.77 76.25 258.95
  Q 74.59 258.99 72.84 260.83
  C 54.39 280.13 33.32 300.35 17.04 316.44
  A 0.65 0.65 0.0 0 0 17.50 317.55
  L 156.10 316.86
  A 1.23 1.23 0.0 0 0 157.10 316.32
  L 195.00 259.01
  A 0.35 0.35 0.0 0 0 194.71 258.47
  L 162.83 258.63
  A 0.56 0.56 0.0 0 0 162.29 259.32
  C 163.84 265.64 157.51 269.56 152.31 265.70
  A 0.97 0.97 0.0 0 0 151.02 265.82
  Q 147.47 269.69 143.77 272.52
  C 139.95 275.44 136.57 270.36 133.84 267.69
  A 0.50 0.50 0.0 0 0 132.99 268.02
  C 132.84 270.86 130.89 271.27 128.50 272.12
  A 2.99 2.47 -64.5 0 0 128.07 272.32
  Q 124.49 274.60 123.68 278.17
  A 0.31 0.30 9.6 0 1 123.35 278.40
  L 123.08 278.37
  A 0.61 0.61 0.0 0 1 122.54 277.70
  Q 122.96 273.73 126.69 271.15
  C 127.84 270.35 130.21 269.84 130.71 269.04
  Q 131.04 268.50 130.56 267.87
  A 0.82 0.82 0.0 0 1 130.63 266.78
  L 132.45 264.95
  A 0.86 0.86 0.0 0 1 133.65 264.94
  Q 136.28 267.47 139.30 270.56
  Q 141.37 272.68 143.56 270.56
  Q 148.74 265.55 151.14 263.46
  A 0.74 0.73 44.0 0 1 152.08 263.45
  C 153.62 264.70 155.55 266.20 157.46 265.59
  Q 160.88 264.51 160.67 261.34
  Q 160.38 256.86 155.97 256.60
  A 0.79 0.77 72.2 0 1 155.40 256.30
  L 152.76 252.96
  A 0.80 0.79 -39.9 0 1 152.86 251.87
  L 200.56 209.34
  A 0.65 0.65 0.0 0 0 200.63 208.43
  Q 200.41 208.17 200.31 207.96
  A 1.09 1.09 0.0 0 1 200.57 206.68
  L 217.30 191.76
  A 1.51 1.49 -64.2 0 1 218.37 191.38
  C 222.94 191.62 228.19 187.59 225.75 182.59
  A 1.29 1.28 -33.5 0 1 226.07 181.05
  L 338.78 84.20
  A 0.86 0.85 47.1 0 1 339.93 84.25
  L 341.38 85.70
  A 1.32 1.32 0.0 0 0 343.17 85.77
  L 345.41 83.84
  A 0.69 0.68 -40.0 0 1 346.38 83.92
  Q 352.55 91.26 359.79 99.46
  Q 361.34 101.23 363.25 102.32
  A 2.65 2.64 37.4 0 0 366.44 101.90
  L 373.17 95.17
  A 0.76 0.70 -77.0 0 1 373.45 94.98
  C 375.39 94.17 378.25 92.38 379.29 90.44
  A 3.15 3.14 -50.0 0 0 378.99 87.00
  L 363.15 66.95
  A 0.61 0.61 0.0 0 1 363.24 66.11
  L 385.27 47.18
  A 1.31 1.31 0.0 0 1 387.28 47.56
  Q 391.21 54.91 392.06 63.53
  C 392.77 70.67 392.88 76.19 395.58 82.26
  Q 398.92 89.74 402.74 94.00
  C 405.25 96.80 406.11 100.60 408.61 103.35
  C 410.98 105.96 411.78 108.50 413.76 111.99
  C 416.69 117.15 421.72 120.10 428.49 125.01
  A 0.51 0.51 0.0 0 0 429.30 124.66
  L 429.58 122.13
  A 1.47 1.45 26.3 0 0 429.17 120.94
  Q 427.77 119.51 428.51 117.33
  A 1.49 1.45 44.2 0 0 428.48 116.27
  Q 428.37 115.99 428.00 115.60
  Q 427.63 115.20 427.77 114.34
  Q 427.93 113.38 427.24 112.40
  Q 426.99 112.05 427.17 111.56
  Q 427.36 111.03 427.31 110.65
  Q 427.24 110.09 426.35 109.74
  Q 425.35 109.34 424.89 109.04
  A 2.16 2.15 31.5 0 1 424.20 106.18
  L 427.25 100.79
  A 1.08 1.07 45.8 0 0 427.26 99.74
  Q 424.02 93.88 419.14 90.33
  A 8.07 8.01 -17.1 0 0 417.08 89.25
  C 413.42 87.96 409.10 86.52 407.51 83.22
  A 0.24 0.24 0.0 0 1 407.90 82.96"
/>
</g>
</svg>