<?xml version="1.0" encoding="UTF-8" standalone="no"?>
<svg
   version="1.1"
   viewBox="0 0 308.72778 179.55882"
   id="svg12"
   width="308.72778"
   height="179.55882"
   xmlns="http://www.w3.org/2000/svg">
  <path
     fill="#111214"
     d="m 272.92778,57.680684 12.07,9.47 a 0.08276473,0.08276473 0 0 1 -0.07,0.15 l -42.51,-11.39 a 0.54,0.54 0 0 1 -0.24,-0.9 l 5.33,-5.33 a 1.93,1.91 63.9 0 0 0.54,-1.62 l -0.88,-6.33 a 0.27,0.28 73.5 0 0 -0.39,-0.21 l -49.7,24.02 a 0.49,0.49 0 0 1 -0.7,-0.5 l 1.91,-13.82 a 0.83,0.85 75.8 0 1 0.34,-0.56 l 11.2,-8.25 a 0.38,0.38 0 0 0 -0.03,-0.63 l -6.88,-3.97 a 0.64,0.63 42 0 1 -0.06,-1.06 l 4.31,-3.18 a 1.42,1.44 67.5 0 0 0.57,-1.35 l -0.94,-6.87 a 0.38,0.38 0 0 0 -0.63,-0.23 q -0.83,0.76 -8.44,6.57 -4.06,3.1 -9.04,5.42 -6.17,2.87 -15.88,7.83 a 0.26,0.26 0 0 0 0.08,0.49 l 7.88,1.09 a 0.51,0.51 0 0 1 0.19,0.95 l -22.99,13.28 a 0.27,0.28 84.8 0 1 -0.4,-0.33 l 2.81,-7.83 a 1.08,1.09 24.7 0 0 -0.48,-1.31 l -8.18,-4.73 a 0.53,0.53 0 0 1 -0.14,-0.81 l 9.42,-11.1 a 0.54,0.54 0 0 0 -0.23,-0.86 l -11.13,-4 a 0.5,0.5 0 0 1 -0.24,-0.75 c 1.31,-1.93 3.82,-4.6 4.53,-7.79 a 1.49,1.2 57.2 0 0 0.03,-0.29 l -0.21,-15.2699998 a 0.37,0.37 0 0 0 -0.62,-0.27 l -31.7,28.9399998 a 0.3,0.3 0 0 0 -0.04,0.4 l 24.43,33.16 a 0.2,0.19 81.7 0 1 -0.22,0.3 q -30.26,-11 -46.280002,-16.38 -0.26,-0.09 -0.31,-0.29 -0.1,-0.38 0.15,-0.55 7.100002,-4.64 10.280002,-6.68 a 0.84,0.84 0 0 0 -0.03,-1.43 l -4.82,-2.78 a 1.52,1.51 18.9 0 1 -0.75,-1.52 l 1.96,-14.21 a 0.45,0.45 0 0 0 -0.73,-0.41 l -49.240002,40.63 a 0.23,0.23 0 0 1 -0.36,-0.26 q 3.33,-9.3 4.77,-13.3 0.91,-2.51 0.35,-9.35 a 0.39,0.38 73.7 0 0 -0.56,-0.31 q -4.37,2.28 -23.58,12.72 -10.93,5.94 -16.87,8.14 -2.12,0.78 -17.5700002,6.62 a 0.08,0.08 0 0 1 -0.06,-0.14 l 58.6600002,-31.54 a 2.02,2.04 39.8 0 1 1.6,-0.15 l 14.07,4.59 a 3,3 0 0 0 2.84,-0.54 l 26.600002,-21.95 a 0.81,0.8 44 0 1 1.02,-0.01 l 13.57,10.65 a 0.92,0.92 0 0 0 1.18,-0.05 l 32.32,-29.4899998 a 0.82,0.82 0 0 1 1.14,0.02 l 26.52,26.5199998 a 1.3,1.28 53.3 0 0 1.52,0.23 l 10.27,-5.53 a 0.82,0.81 54.5 0 1 0.98,0.17 l 3.92,4.3 a 1.17,1.16 49 0 0 1.6,0.12 l 6.45,-5.33 a 1.02,1 46.4 0 1 1.32,0.04 l 25,23.03 a 1.22,1.21 53.2 0 0 1.35,0.2 l 12.54,-6.06 a 1.95,1.97 46.6 0 1 1.79,0.04 l 57.68,30.97 a 0.22,0.21 27.8 0 1 0.09,0.28 l -0.01,0.01 a 0.12,0.12 0 0 1 -0.15,0.06 l -32.79,-11.8 a 0.11,0.11 0 0 0 -0.1,0.19 z" />
  <path
     fill="#111214"
     d="m 20.207778,119.34068 c 5.94,0.01 9.79,-3.56 9.93,-9.71 q 0.26,-10.839996 0.07,-26.359996 a 0.42,0.42 0 0 1 0.42,-0.43 h 9.39 a 0.45,0.45 0 0 1 0.45,0.45 q 0.02,15.04 -0.04,25.649996 -0.04,7.77 -3.7,12.63 c -3.63,4.8 -10.72,6.84 -16.53,6.84 -5.8,-0.01 -12.8900002,-2.06 -16.5100002,-6.88 q -3.65000002,-4.86 -3.67000002,-12.63 -0.04,-10.609996 0.01,-25.649996 a 0.45,0.45 0 0 1 0.45,-0.45 l 9.39000002,0.02 a 0.42,0.42 0 0 1 0.4200002,0.43 q -0.22,15.52 0.01,26.359996 c 0.14,6.15 3.98,9.73 9.91,9.73 z" />
  <path
     fill="#111214"
     d="m 51.077778,82.770684 q 0.02,0 20.51,0.09 8.93,0.04 14.56,6.07 c 3.18,3.41 3.83,10.11 2.65,14.479996 -3.44,12.72 -17.3,11.98 -27.51,11.67 a 0.62,0.62 0 0 0 -0.64,0.62 v 11.21 a 0.6,0.6 0 0 1 -0.6,0.6 h -8.95 a 0.6,0.6 0 0 1 -0.6,-0.6 V 83.290684 a 0.53,0.52 3 0 1 0.58,-0.52 z m 9.56,8.95 0.08,14.419996 a 0.57,0.57 0 0 0 0.57,0.56 l 9.58,-0.05 a 7.57,8.21 89.7 0 0 8.17,-7.609996 v -0.42 a 7.57,8.21 89.7 0 0 -8.25,-7.52 l -9.58,0.05 a 0.57,0.57 0 0 0 -0.57,0.57 z" />
  <path
     fill="#111214"
     d="m 123.51778,82.800684 h 9.43 a 0.34,0.34 0 0 1 0.33,0.24 l 9.83,30.509996 a 0.34,0.34 0 0 0 0.64,0 l 9.93,-30.499996 a 0.34,0.34 0 0 1 0.33,-0.23 h 9.28 a 0.34,0.34 0 0 1 0.33,0.45 l -14.33,44.009996 a 0.34,0.34 0 0 1 -0.33,0.23 h -10.91 a 0.34,0.34 0 0 1 -0.33,-0.24 l -9.41,-29.239996 a 0.34,0.34 0 0 0 -0.65,0 l -9.52,29.259996 a 0.34,0.34 0 0 1 -0.33,0.23 h -11.04 a 0.34,0.34 0 0 1 -0.33,-0.24 L 92.257778,83.250684 a 0.34,0.34 0 0 1 0.33,-0.44 h 9.960002 a 0.34,0.34 0 0 1 0.33,0.24 l 9.78,30.349996 a 0.34,0.34 0 0 0 0.64,0 l 9.89,-30.369996 a 0.34,0.34 0 0 1 0.33,-0.23 z" />
  <path
     fill="#111214"
     d="m 186.93778,82.830684 q 1.74,0 4.46,-0.01 a 1.31,1.3 77.6 0 1 1.2,0.78 l 19.48,43.739996 a 0.15,0.14 77.9 0 1 -0.13,0.21 h -10.09 a 0.42,0.41 78 0 1 -0.38,-0.25 l -3.77,-8.46 a 1.23,1.23 0 0 0 -1.11,-0.73 q -9.06,-0.05 -9.74,-0.06 -0.67,0 -9.73,0.02 a 1.23,1.23 0 0 0 -1.11,0.73 l -3.81,8.44 a 0.41,0.42 12.3 0 1 -0.38,0.25 l -10.09,-0.04 a 0.14,0.15 12.3 0 1 -0.13,-0.21 l 19.66,-43.659996 a 1.3,1.31 12.6 0 1 1.21,-0.78 q 2.72,0.03 4.46,0.03 z m -7,26.759996 a 0.3,0.3 0 0 0 0.27,0.42 l 13.22,0.04 a 0.3,0.3 0 0 0 0.28,-0.41 l -6.56,-15.609996 a 0.3,0.3 0 0 0 -0.55,0 z" />
  <path
     fill="#111214"
     d="m 256.17778,127.35068 a 0.1,0.1 0 0 1 -0.09,0.15 h -10.86 a 0.53,0.56 73.3 0 1 -0.45,-0.23 l -8.05,-11.72 a 1.55,1.54 72.9 0 0 -1.28,-0.68 h -7.79 a 0.75,0.76 0 0 0 -0.75,0.76 v 11.23 a 0.67,0.67 0 0 1 -0.67,0.67 h -9.17 a 0.59,0.59 0 0 1 -0.59,-0.59 V 83.270684 a 0.42,0.42 0 0 1 0.42,-0.42 q 13.75,-0.12 21.2,0.06 c 9.78,0.23 17.5,5.88 17.35,16.32 q -0.14,9.429996 -8.44,13.649996 a 0.55,0.56 59.2 0 0 -0.21,0.81 z m -29.25,-35.739996 v 14.579996 a 0.46,0.46 0 0 0 0.46,0.46 h 9.7 a 7.84,7.32 0 0 0 7.84,-7.319996 v -0.86 a 7.84,7.32 0 0 0 -7.84,-7.32 h -9.7 a 0.46,0.46 0 0 0 -0.46,0.46 z" />
  <path
     fill="#111214"
     d="m 308.72778,105.15068 c 0,13.45 -9.86,21.8 -23.16,22.24 q -7.45,0.25 -21.81,0.07 a 0.6,0.6 0 0 1 -0.59,-0.61 q 0.07,-2.84 0.07,-21.7 0.01,-18.869996 -0.06,-21.709996 a 0.6,0.6 0 0 1 0.59,-0.61 q 14.36,-0.18 21.81,0.08 c 13.3,0.44 23.15,8.79 23.15,22.239996 z m -35.09,-13.309996 v 26.479996 a 0.67,0.67 0 0 0 0.67,0.67 h 10.03 a 13.64,13.01 0 0 0 13.64,-13.01 v -1.8 a 13.64,13.01 0 0 0 -13.64,-13.009996 h -10.03 a 0.67,0.67 0 0 0 -0.67,0.67 z" />
  <ellipse
     fill="#111214"
     cx="169.59995"
     cy="165.69597"
     transform="rotate(-6.9)"
     rx="2.55"
     ry="2.3199999" />
  <path
     fill="#111214"
     d="m 123.28778,152.57068 a 0.36,0.36 0 0 0 0.57,0.3 q 5.01,-3.71 10.68,-1.85 3.22,1.05 4.83,5.82 a 0.69,0.58 39.8 0 1 0.04,0.22 v 13.93 a 0.98,0.97 0 0 1 -0.98,0.97 h -1.61 a 1,0.99 88.8 0 1 -0.99,-0.96 q -0.11,-3.32 0.03,-10.36 0.16,-7.59 -7.17,-6.63 c -4.37,0.58 -5.41,4.14 -5.42,8.5 q -0.01,7.22 0.02,8.38 a 1.06,1.06 0 0 1 -1.06,1.1 h -1.3 a 1.2,1.21 0 0 1 -1.2,-1.21 v -27.58 a 0.91,0.91 0 0 1 0.91,-0.91 h 1.94 a 0.71,0.7 0 0 1 0.71,0.7 z" />
  <path
     fill="#111214"
     d="m 92.207778,171.17068 v -26.99 a 0.54,0.53 89.5 0 1 0.52,-0.54 q 6.34,-0.06 12.010002,0.25 c 4.07,0.21 8.34,2.1 9.49,6.38 q 2.17,8.08 -4.32,11.49 c -3.74,1.96 -9.04,1.54 -13.030002,1.3 a 0.55,0.56 1.9 0 0 -0.59,0.56 v 7.61 a 0.63,0.64 0 0 1 -0.63,0.64 h -2.75 a 0.7,0.7 0 0 1 -0.7,-0.7 z m 4.16,-23.28 -0.08,11.24 a 0.63,0.63 0 0 0 0.63,0.63 l 7.350002,0.06 a 6.46,5.95 0.4 0 0 6.5,-5.91 v -0.6 a 6.46,5.95 0.4 0 0 -6.42,-5.99 l -7.350002,-0.06 a 0.63,0.63 0 0 0 -0.63,0.63 z" />
  <path
     fill="#111214"
     d="m 153.05778,166.65068 a 0.24,0.25 45.3 0 0 0.45,0 l 6.6,-15.05 a 1.9,1.88 11.5 0 1 1.74,-1.14 h 1.14 a 0.95,0.95 0 0 1 0.86,1.35 q -3.65,7.79 -11.05,24.58 -2.03,4.59 -10.49,2.53 a 1.34,1.35 18.7 0 1 -0.91,-1.85 l 0.43,-0.97 a 1.13,1.14 26.8 0 1 1.6,-0.53 q 4.37,2.49 6.54,-1.01 1.49,-2.4 1.04,-3.68 -0.01,-0.02 -0.02,-0.04 l -8.81,-19.54 a 0.54,0.54 0 0 1 0.49,-0.76 h 2.15 a 1.64,1.64 0 0 1 1.5,0.98 z" />
  <path
     fill="#111214"
     d="m 166.73778,166.86068 q 4.39,2.52 9.14,1.47 1.93,-0.43 2.41,-1.86 a 2.32,2.17 15.5 0 0 -1.74,-2.85 q -5.28,-1.2 -7.79,-1.84 -3.4,-0.86 -3.59,-4.03 c -0.5,-8.38 9.8,-8.19 15.01,-6.17 a 1.33,1.35 20.5 0 1 0.77,1.71 l -0.38,1.08 a 1.13,1.13 0 0 1 -1.53,0.64 c -2.75,-1.25 -5.71,-2.01 -8.48,-0.67 -2.92,1.42 -1.87,4.01 0.89,4.79 q 0.16,0.05 6.31,1.45 c 6.01,1.37 6.01,7.94 0.82,10.35 q -5.74,2.65 -13.2,-0.67 a 1.17,1.19 21.6 0 1 -0.63,-1.48 l 0.49,-1.36 a 1.04,1.05 24.7 0 1 1.5,-0.56 z" />
  <rect
     fill="#111214"
     x="186.52887"
     y="150.2121"
     transform="rotate(0.1)"
     width="3.76"
     height="21.360001"
     rx="0.64999998" />
  <path
     fill="#111214"
     d="m 216.80638,160.70028 a 10.85,11.03 87.4 0 1 -10.5264,11.3392 10.85,11.03 87.4 0 1 -11.5108,-10.3384 10.85,11.03 87.4 0 1 10.5264,-11.3392 10.85,11.03 87.4 0 1 11.5108,10.3384 z m -11.0328,-6.9096 a 7.12,7.38 0.2 0 0 -7.1458,7.3551 7.12,7.38 0.2 0 0 7.0942,7.4049 7.12,7.38 0.2 0 0 7.1458,-7.3551 7.12,7.38 0.2 0 0 -7.0942,-7.4049 z" />
</svg>
