<?xml version="1.0" encoding="UTF-8" standalone="no"?>
<!DOCTYPE svg PUBLIC "-//W3C//DTD SVG 1.1//EN" "http://www.w3.org/Graphics/SVG/1.1/DTD/svg11.dtd">
<svg xmlns="http://www.w3.org/2000/svg" version="1.1" viewBox="0.00 0.00 434.00 576.00">
<path fill="#ffffff" d="
  M 336.81 256.23
  L 348.88 265.70
  A 0.08 0.08 0.0 0 1 348.81 265.85
  L 306.30 254.46
  A 0.54 0.54 0.0 0 1 306.06 253.56
  L 311.39 248.23
  A 1.93 1.91 63.9 0 0 311.93 246.61
  L 311.05 240.28
  A 0.28 0.27 -16.5 0 0 310.66 240.07
  L 260.96 264.09
  A 0.49 0.49 0.0 0 1 260.26 263.59
  L 262.17 249.77
  A 0.85 0.83 -14.2 0 1 262.51 249.21
  L 273.71 240.96
  A 0.38 0.38 0.0 0 0 273.68 240.33
  L 266.80 236.36
  A 0.64 0.63 42.0 0 1 266.74 235.30
  L 271.05 232.12
  A 1.44 1.42 -22.5 0 0 271.62 230.77
  L 270.68 223.90
  A 0.38 0.38 0.0 0 0 270.05 223.67
  Q 269.22 224.43 261.61 230.24
  Q 257.55 233.34 252.57 235.66
  Q 246.40 238.53 236.69 243.49
  A 0.26 0.26 0.0 0 0 236.77 243.98
  L 244.65 245.07
  A 0.51 0.51 0.0 0 1 244.84 246.02
  L 221.85 259.30
  A 0.28 0.27 -5.2 0 1 221.45 258.97
  L 224.26 251.14
  A 1.09 1.08 -65.3 0 0 223.78 249.83
  L 215.60 245.10
  A 0.53 0.53 0.0 0 1 215.46 244.29
  L 224.88 233.19
  A 0.54 0.54 0.0 0 0 224.65 232.33
  L 213.52 228.33
  A 0.50 0.50 0.0 0 1 213.28 227.58
  C 214.59 225.65 217.10 222.98 217.81 219.79
  A 1.49 1.20 57.2 0 0 217.84 219.50
  L 217.63 204.23
  A 0.37 0.37 0.0 0 0 217.01 203.96
  L 185.31 232.90
  A 0.30 0.30 0.0 0 0 185.27 233.30
  L 209.70 266.46
  A 0.20 0.19 81.7 0 1 209.48 266.76
  Q 179.22 255.76 163.20 250.38
  Q 162.94 250.29 162.89 250.09
  Q 162.79 249.71 163.04 249.54
  Q 170.14 244.90 173.32 242.86
  A 0.84 0.84 0.0 0 0 173.29 241.43
  L 168.47 238.65
  A 1.52 1.51 18.9 0 1 167.72 237.13
  L 169.68 222.92
  A 0.45 0.45 0.0 0 0 168.95 222.51
  L 119.71 263.14
  A 0.23 0.23 0.0 0 1 119.35 262.88
  Q 122.68 253.58 124.12 249.58
  Q 125.03 247.07 124.47 240.23
  A 0.39 0.38 73.7 0 0 123.91 239.92
  Q 119.54 242.20 100.33 252.64
  Q 89.40 258.58 83.46 260.78
  Q 81.34 261.56 65.89 267.40
  A 0.08 0.08 0.0 0 1 65.83 267.26
  L 124.49 235.72
  A 2.04 2.02 -50.2 0 1 126.09 235.57
  L 140.16 240.16
  A 3.00 3.00 0.0 0 0 143.00 239.62
  L 169.60 217.67
  A 0.81 0.80 44.0 0 1 170.62 217.66
  L 184.19 228.31
  A 0.92 0.92 0.0 0 0 185.37 228.26
  L 217.69 198.77
  A 0.82 0.82 0.0 0 1 218.83 198.79
  L 245.35 225.31
  A 1.30 1.28 53.3 0 0 246.87 225.54
  L 257.14 220.01
  A 0.82 0.81 54.5 0 1 258.12 220.18
  L 262.04 224.48
  A 1.17 1.16 49.0 0 0 263.64 224.60
  L 270.09 219.27
  A 1.02 1.00 46.4 0 1 271.41 219.31
  L 296.41 242.34
  A 1.22 1.21 53.2 0 0 297.76 242.54
  L 310.30 236.48
  A 1.97 1.95 -43.4 0 1 312.09 236.52
  L 369.77 267.49
  A 0.22 0.21 27.8 0 1 369.86 267.77
  L 369.85 267.78
  A 0.12 0.12 0.0 0 1 369.70 267.84
  L 336.91 256.04
  A 0.11 0.11 0.0 0 0 336.81 256.23
  Z"
/>
<path fill="#ffffff" d="
  M 84.09 317.89
  C 90.03 317.90 93.88 314.33 94.02 308.18
  Q 94.28 297.34 94.09 281.82
  A 0.42 0.42 0.0 0 1 94.51 281.39
  L 103.90 281.39
  A 0.45 0.45 0.0 0 1 104.35 281.84
  Q 104.37 296.88 104.31 307.49
  Q 104.27 315.26 100.61 320.12
  C 96.98 324.92 89.89 326.96 84.08 326.96
  C 78.28 326.95 71.19 324.90 67.57 320.08
  Q 63.92 315.22 63.90 307.45
  Q 63.86 296.84 63.91 281.80
  A 0.45 0.45 0.0 0 1 64.36 281.35
  L 73.75 281.37
  A 0.42 0.42 0.0 0 1 74.17 281.80
  Q 73.95 297.32 74.18 308.16
  C 74.32 314.31 78.16 317.89 84.09 317.89
  Z"
/>
<path fill="#ffffff" d="
  M 114.96 281.32
  Q 114.98 281.32 135.47 281.41
  Q 144.40 281.45 150.03 287.48
  C 153.21 290.89 153.86 297.59 152.68 301.96
  C 149.24 314.68 135.38 313.94 125.17 313.63
  A 0.62 0.62 0.0 0 0 124.53 314.25
  L 124.53 325.46
  A 0.60 0.60 0.0 0 1 123.93 326.06
  L 114.98 326.06
  A 0.60 0.60 0.0 0 1 114.38 325.46
  L 114.38 281.84
  A 0.53 0.52 3.0 0 1 114.96 281.32
  Z
  M 124.52 290.27
  L 124.60 304.69
  A 0.57 0.57 0.0 0 0 125.17 305.25
  L 134.75 305.20
  A 8.21 7.57 -0.3 0 0 142.92 297.59
  L 142.92 297.17
  A 8.21 7.57 -0.3 0 0 134.67 289.65
  L 125.09 289.70
  A 0.57 0.57 0.0 0 0 124.52 290.27
  Z"
/>
<path fill="#ffffff" d="
  M 187.40 281.35
  L 196.83 281.35
  A 0.34 0.34 0.0 0 1 197.16 281.59
  L 206.99 312.10
  A 0.34 0.34 0.0 0 0 207.63 312.10
  L 217.56 281.60
  A 0.34 0.34 0.0 0 1 217.89 281.37
  L 227.17 281.37
  A 0.34 0.34 0.0 0 1 227.50 281.82
  L 213.17 325.83
  A 0.34 0.34 0.0 0 1 212.84 326.06
  L 201.93 326.06
  A 0.34 0.34 0.0 0 1 201.60 325.82
  L 192.19 296.58
  A 0.34 0.34 0.0 0 0 191.54 296.58
  L 182.02 325.84
  A 0.34 0.34 0.0 0 1 181.69 326.07
  L 170.65 326.07
  A 0.34 0.34 0.0 0 1 170.32 325.83
  L 156.14 281.80
  A 0.34 0.34 0.0 0 1 156.47 281.36
  L 166.43 281.36
  A 0.34 0.34 0.0 0 1 166.76 281.60
  L 176.54 311.95
  A 0.34 0.34 0.0 0 0 177.18 311.95
  L 187.07 281.58
  A 0.34 0.34 0.0 0 1 187.40 281.35
  Z"
/>
<path fill="#ffffff" d="
  M 250.82 281.38
  Q 252.56 281.38 255.28 281.37
  A 1.31 1.30 77.6 0 1 256.48 282.15
  L 275.96 325.89
  A 0.15 0.14 77.9 0 1 275.83 326.10
  L 265.74 326.10
  A 0.42 0.41 78.0 0 1 265.36 325.85
  L 261.59 317.39
  A 1.23 1.23 0.0 0 0 260.48 316.66
  Q 251.42 316.61 250.74 316.60
  Q 250.07 316.60 241.01 316.62
  A 1.23 1.23 0.0 0 0 239.90 317.35
  L 236.09 325.79
  A 0.42 0.41 -77.7 0 1 235.71 326.04
  L 225.62 326.00
  A 0.15 0.14 -77.7 0 1 225.49 325.79
  L 245.15 282.13
  A 1.31 1.30 -77.4 0 1 246.36 281.35
  Q 249.08 281.38 250.82 281.38
  Z
  M 243.82 308.14
  A 0.30 0.30 0.0 0 0 244.09 308.56
  L 257.31 308.60
  A 0.30 0.30 0.0 0 0 257.59 308.19
  L 251.03 292.58
  A 0.30 0.30 0.0 0 0 250.48 292.58
  L 243.82 308.14
  Z"
/>
<path fill="#ffffff" d="
  M 320.06 325.90
  A 0.10 0.10 0.0 0 1 319.97 326.05
  L 309.11 326.05
  A 0.56 0.53 -16.7 0 1 308.66 325.82
  L 300.61 314.10
  A 1.55 1.54 72.9 0 0 299.33 313.42
  L 291.54 313.42
  A 0.76 0.75 90.0 0 0 290.79 314.18
  L 290.79 325.41
  A 0.67 0.67 0.0 0 1 290.12 326.08
  L 280.95 326.08
  A 0.59 0.59 0.0 0 1 280.36 325.49
  L 280.36 281.82
  A 0.42 0.42 0.0 0 1 280.78 281.40
  Q 294.53 281.28 301.98 281.46
  C 311.76 281.69 319.48 287.34 319.33 297.78
  Q 319.19 307.21 310.89 311.43
  A 0.56 0.55 -30.8 0 0 310.68 312.24
  L 320.06 325.90
  Z
  M 290.81 290.16
  L 290.81 304.74
  A 0.46 0.46 0.0 0 0 291.27 305.20
  L 300.97 305.20
  A 7.84 7.32 0.0 0 0 308.81 297.88
  L 308.81 297.02
  A 7.84 7.32 -0.0 0 0 300.97 289.70
  L 291.27 289.70
  A 0.46 0.46 0.0 0 0 290.81 290.16
  Z"
/>
<path fill="#ffffff" d="
  M 372.61 303.70
  C 372.61 317.15 362.75 325.50 349.45 325.94
  Q 342.00 326.19 327.64 326.01
  A 0.60 0.60 0.0 0 1 327.05 325.40
  Q 327.12 322.56 327.12 303.70
  Q 327.13 284.83 327.06 281.99
  A 0.60 0.60 0.0 0 1 327.65 281.38
  Q 342.01 281.20 349.46 281.46
  C 362.76 281.90 372.61 290.25 372.61 303.70
  Z
  M 337.52 290.39
  L 337.52 316.87
  A 0.67 0.67 0.0 0 0 338.19 317.54
  L 348.22 317.54
  A 13.64 13.01 0.0 0 0 361.86 304.53
  L 361.86 302.73
  A 13.64 13.01 -0.0 0 0 348.22 289.72
  L 338.19 289.72
  A 0.67 0.67 0.0 0 0 337.52 290.39
  Z"
/>
<ellipse fill="#ffffff" cx="0.00" cy="0.00" transform="translate(252.16,342.67) rotate(-6.9)" rx="2.55" ry="2.32"/>
<path fill="#ffffff" d="
  M 187.17 351.12
  A 0.36 0.36 0.0 0 0 187.74 351.42
  Q 192.75 347.71 198.42 349.57
  Q 201.64 350.62 203.25 355.39
  A 0.69 0.58 39.8 0 1 203.29 355.61
  L 203.29 369.54
  A 0.98 0.97 -0.0 0 1 202.31 370.51
  L 200.70 370.51
  A 1.00 0.99 88.8 0 1 199.71 369.55
  Q 199.60 366.23 199.74 359.19
  Q 199.90 351.60 192.57 352.56
  C 188.20 353.14 187.16 356.70 187.15 361.06
  Q 187.14 368.28 187.17 369.44
  A 1.06 1.06 0.0 0 1 186.11 370.54
  L 184.81 370.54
  A 1.21 1.20 90.0 0 1 183.61 369.33
  L 183.61 341.75
  A 0.91 0.91 0.0 0 1 184.52 340.84
  L 186.46 340.84
  A 0.71 0.70 0.0 0 1 187.17 341.54
  L 187.17 351.12
  Z"
/>
<path fill="#ffffff" d="
  M 156.09 369.72
  L 156.09 342.73
  A 0.54 0.53 89.5 0 1 156.61 342.19
  Q 162.95 342.13 168.62 342.44
  C 172.69 342.65 176.96 344.54 178.11 348.82
  Q 180.28 356.90 173.79 360.31
  C 170.05 362.27 164.75 361.85 160.76 361.61
  A 0.56 0.55 -88.1 0 0 160.17 362.17
  L 160.17 369.78
  A 0.64 0.63 90.0 0 1 159.54 370.42
  L 156.79 370.42
  A 0.70 0.70 0.0 0 1 156.09 369.72
  Z
  M 160.25 346.44
  L 160.17 357.68
  A 0.63 0.63 0.0 0 0 160.80 358.31
  L 168.15 358.37
  A 6.46 5.95 0.4 0 0 174.65 352.46
  L 174.65 351.86
  A 6.46 5.95 0.4 0 0 168.23 345.87
  L 160.88 345.81
  A 0.63 0.63 0.0 0 0 160.25 346.44
  Z"
/>
<path fill="#ffffff" d="
  M 216.94 365.20
  A 0.25 0.24 -44.7 0 0 217.39 365.20
  L 223.99 350.15
  A 1.90 1.88 11.5 0 1 225.73 349.01
  L 226.87 349.01
  A 0.95 0.95 0.0 0 1 227.73 350.36
  Q 224.08 358.15 216.68 374.94
  Q 214.65 379.53 206.19 377.47
  A 1.35 1.34 -71.3 0 1 205.28 375.62
  L 205.71 374.65
  A 1.14 1.13 -63.2 0 1 207.31 374.12
  Q 211.68 376.61 213.85 373.11
  Q 215.34 370.71 214.89 369.43
  Q 214.88 369.41 214.87 369.39
  L 206.06 349.85
  A 0.54 0.54 0.0 0 1 206.55 349.09
  L 208.70 349.09
  A 1.64 1.64 0.0 0 1 210.20 350.07
  L 216.94 365.20
  Z"
/>
<path fill="#ffffff" d="
  M 230.62 365.41
  Q 235.01 367.93 239.76 366.88
  Q 241.69 366.45 242.17 365.02
  A 2.32 2.17 15.5 0 0 240.43 362.17
  Q 235.15 360.97 232.64 360.33
  Q 229.24 359.47 229.05 356.30
  C 228.55 347.92 238.85 348.11 244.06 350.13
  A 1.35 1.33 -69.5 0 1 244.83 351.84
  L 244.45 352.92
  A 1.13 1.13 0.0 0 1 242.92 353.56
  C 240.17 352.31 237.21 351.55 234.44 352.89
  C 231.52 354.31 232.57 356.90 235.33 357.68
  Q 235.49 357.73 241.64 359.13
  C 247.65 360.50 247.65 367.07 242.46 369.48
  Q 236.72 372.13 229.26 368.81
  A 1.19 1.17 -68.4 0 1 228.63 367.33
  L 229.12 365.97
  A 1.05 1.04 -65.3 0 1 230.62 365.41
  Z"
/>
<rect fill="#ffffff" x="-1.88" y="-10.68" transform="translate(252.01,359.77) rotate(0.1)" width="3.76" height="21.36" rx="0.65"/>
<path fill="#ffffff" d="
  M 280.6886 359.2496
  A 11.03 10.85 -2.6 0 1 270.1622 370.5888
  A 11.03 10.85 -2.6 0 1 258.6514 360.2504
  A 11.03 10.85 -2.6 0 1 269.1778 348.9112
  A 11.03 10.85 -2.6 0 1 280.6886 359.2496
  Z
  M 269.6558 352.3400
  A 7.38 7.12 -89.8 0 0 262.5100 359.6951
  A 7.38 7.12 -89.8 0 0 269.6042 367.1000
  A 7.38 7.12 -89.8 0 0 276.7500 359.7449
  A 7.38 7.12 -89.8 0 0 269.6558 352.3400
  Z"
/>
</svg>
